<?xml version="1.0" encoding="UTF-8"?>
<svg version="1.1" xmlns="http://www.w3.org/2000/svg" width="500" height="500">
<path d="M0 0 C11.29395674 10.2510963 15.74267465 22.93135888 16.9375 37.8125 C17.31541639 45.82383117 17.26816945 53.848866 17.2734375 61.8671875 C17.27987613 64.18213989 17.28660526 66.49709149 17.29360962 68.81204224 C17.30551912 73.6380604 17.30929642 78.46400727 17.30810547 83.29003906 C17.30790132 89.46352037 17.33533061 95.63654631 17.36964989 101.80991936 C17.39190195 106.57980443 17.39594371 111.34957898 17.39488602 116.11951065 C17.39723961 118.39602367 17.40604941 120.67253985 17.42155075 122.94900131 C17.44119895 126.12892481 17.43537933 129.30785263 17.42333984 132.48779297 C17.43457886 133.41886368 17.44581787 134.34993439 17.45739746 135.30921936 C17.39408004 141.90779898 16.07577179 147.33437665 11.56097984 152.33808708 C6.80101948 156.62453246 2.35212776 158.06254636 -3.9375 157.8125 C-9.39939248 157.11225737 -13.36442299 154.88636313 -17.0625 150.8125 C-20.50137329 145.42176024 -20.48737664 140.8023435 -20.44726562 134.61962891 C-20.4526384 133.60747818 -20.45801117 132.59532745 -20.46354675 131.55250549 C-20.47330973 129.360713 -20.47627339 127.16888192 -20.47319031 124.97706985 C-20.46870535 121.50449492 -20.48273276 118.03242772 -20.50158691 114.55990601 C-20.53834342 107.18577891 -20.55207278 99.81170521 -20.5625 92.4375 C-20.57458865 83.89721293 -20.59618266 75.35717348 -20.64250183 66.81699753 C-20.65604781 63.40252647 -20.65190528 59.98837034 -20.64709473 56.57388306 C-20.65643869 54.47063805 -20.66660835 52.36739649 -20.67773438 50.26416016 C-20.67158615 49.32052109 -20.66543793 48.37688202 -20.65910339 47.40464783 C-20.72229933 40.58006912 -21.49841861 34.59025484 -26.3125 29.375 C-30.17883363 27.17821953 -33.63497933 26.33456708 -38.06640625 27.20703125 C-39.75050509 27.67993981 -41.40989642 28.23914774 -43.0625 28.8125 C-43.0625 29.4725 -43.0625 30.1325 -43.0625 30.8125 C-43.7225 30.8125 -44.3825 30.8125 -45.0625 30.8125 C-45.30742187 31.48667969 -45.55234375 32.16085938 -45.8046875 32.85546875 C-47.61119453 37.10244335 -49.95783847 41.05925373 -52.31640625 45.02148438 C-55.02628637 49.86055602 -55.52576106 53.27118505 -55.0625 58.8125 C-54.7325 59.4725 -54.4025 60.1325 -54.0625 60.8125 C-53.14035572 69.79206891 -54.96451772 75.26879266 -59.9375 82.5625 C-64.45508031 87.34582033 -68.46614155 89.44603564 -75.0625 89.8125 C-77.5 89.375 -77.5 89.375 -79.0625 88.8125 C-79.0625 88.1525 -79.0625 87.4925 -79.0625 86.8125 C-79.7225 86.8125 -80.3825 86.8125 -81.0625 86.8125 C-84.34649145 81.88651283 -84.62939713 76.64344187 -84.0625 70.8125 C-82.51594631 63.35265278 -80.36587482 58.27245997 -74.125 53.625 C-71.0625 51.8125 -71.0625 51.8125 -68.546875 51.01953125 C-65.29006915 49.4372152 -64.72616636 47.96093235 -63.25 44.6875 C-62.5075 43.09421875 -62.5075 43.09421875 -61.75 41.46875 C-61.48445312 40.88738281 -61.21890625 40.30601562 -60.9453125 39.70703125 C-59.29314294 36.16144614 -57.51053802 32.68016118 -55.75 29.1875 C-55.06590201 27.82056474 -54.38227395 26.45339414 -53.69921875 25.0859375 C-52.8203125 23.328125 -51.94140625 21.5703125 -51.0625 19.8125 C-51.7225 19.8125 -52.3825 19.8125 -53.0625 19.8125 C-53.33578125 20.38226563 -53.6090625 20.95203125 -53.890625 21.5390625 C-55.08152787 23.84941407 -56.41977301 25.9935806 -57.8125 28.1875 C-60.39571399 32.36659379 -62.11210469 36.52137292 -63.8125 41.125 C-65.87380535 46.16313727 -67.40697829 48.71359466 -72.3125 51.1875 C-74.71708243 52.14204636 -76.48183254 52.8125 -79.0625 52.8125 C-79.3925 54.1325 -79.7225 55.4525 -80.0625 56.8125 C-80.7225 56.8125 -81.3825 56.8125 -82.0625 56.8125 C-82.1965625 57.38613281 -82.330625 57.95976562 -82.46875 58.55078125 C-83.04920384 60.76185212 -83.78038682 62.85309932 -84.5625 65 C-86.18414383 69.81723608 -88.05515162 75.69463312 -86.4597168 80.70581055 C-85.72987073 84.57664133 -88.23760094 87.54140335 -90.125 90.8125 C-90.50849609 91.5240625 -90.89199219 92.235625 -91.28710938 92.96875 C-94.26092262 98.22069037 -97.4116274 101.60808842 -103.3359375 103.5625 C-108.30111429 104.153153 -111.89633305 103.75841169 -116.27734375 101.25 C-119.47330347 98.67644819 -121.16691897 95.38743608 -123.0625 91.8125 C-123.64 91.008125 -124.2175 90.20375 -124.8125 89.375 C-126.34144488 86.24066299 -126.47216982 83.55964254 -126.765625 80.1171875 C-127.12783762 77.30527372 -128.03137226 74.81251042 -129.1015625 72.1953125 C-130.39132079 68.99713138 -131.53546219 65.7495612 -132.6875 62.5 C-133.11289063 61.30761719 -133.53828125 60.11523438 -133.9765625 58.88671875 C-134.68960084 56.86815337 -135.38551921 54.84344236 -136.0625 52.8125 C-136.7225 52.8125 -137.3825 52.8125 -138.0625 52.8125 C-138.0625 52.1525 -138.0625 51.4925 -138.0625 50.8125 C-138.784375 50.73 -139.50625 50.6475 -140.25 50.5625 C-143.73353216 49.63355809 -145.42732779 48.26450068 -148.0625 45.8125 C-149.3984375 43.18359375 -149.3984375 43.18359375 -150.4375 40.25 C-152.57158016 34.70411015 -155.28928784 30.00501626 -158.609375 25.08984375 C-160.0625 22.8125 -160.0625 22.8125 -161.0625 19.8125 C-161.0625 22.95621295 -160.57203898 24.20552099 -159.234375 26.98046875 C-158.84636719 27.79193359 -158.45835937 28.60339844 -158.05859375 29.43945312 C-157.44177734 30.70692383 -157.44177734 30.70692383 -156.8125 32 C-156.41675781 32.82564453 -156.02101563 33.65128906 -155.61328125 34.50195312 C-154.82242852 36.1471861 -154.02494698 37.78924992 -153.22070312 39.42797852 C-152.46390139 40.98609036 -151.72721209 42.55417622 -151.01367188 44.13256836 C-149.18454491 48.21566459 -149.18454491 48.21566459 -146.0625 51.29296875 C-145.4025 51.52628906 -144.7425 51.75960937 -144.0625 52 C-140.14514897 53.43075126 -138.40074548 55.34807915 -136.0625 58.8125 C-134.6484375 62.23046875 -134.6484375 62.23046875 -133.4375 66 C-133.22585205 66.65621338 -133.0142041 67.31242676 -132.79614258 67.98852539 C-131.15645303 73.19818806 -129.91255928 78.42033295 -129.0625 83.8125 C-130.7125 84.1425 -132.3625 84.4725 -134.0625 84.8125 C-136.3725 79.5325 -138.6825 74.2525 -141.0625 68.8125 C-139.99462935 73.08398262 -138.44882089 76.98227683 -136.8046875 81.05859375 C-135.98981952 84.08218283 -136.20855302 85.83449501 -137.0625 88.8125 C-138.83203125 88.75 -138.83203125 88.75 -141.0625 87.8125 C-142.47575986 85.47169691 -143.63241187 83.28628984 -144.75 80.8125 C-146.48761966 76.52124149 -146.48761966 76.52124149 -149.0625 72.8125 C-148.7015625 73.60914063 -148.340625 74.40578125 -147.96875 75.2265625 C-147.5046875 76.28617187 -147.040625 77.34578125 -146.5625 78.4375 C-145.86640625 80.00371094 -145.86640625 80.00371094 -145.15625 81.6015625 C-144.03482602 84.89374291 -143.855362 87.36365223 -144.0625 90.8125 C-145.3825 90.8125 -146.7025 90.8125 -148.0625 90.8125 C-150.42624412 86.72758299 -152.76868285 82.63184716 -155.08789062 78.52148438 C-155.86758961 77.15427673 -156.6719817 75.80116224 -157.484375 74.453125 C-160.38486788 69.36675343 -160.75237924 64.61427129 -160.0625 58.8125 C-159.7325 58.4825 -159.4025 58.1525 -159.0625 57.8125 C-158.63662078 53.55370781 -158.85038481 50.74411425 -161.0625 47.125 C-163.0625 43.8125 -163.0625 43.8125 -163.0625 39.8125 C-163.7225 39.8125 -164.3825 39.8125 -165.0625 39.8125 C-165.35382813 39.20921875 -165.64515625 38.6059375 -165.9453125 37.984375 C-168.5492977 32.90742272 -170.59323796 29.12641856 -176.0625 26.8125 C-180.51621568 26.51295806 -183.98739234 27.25157426 -187.9375 29.3125 C-193.27815933 35.59562863 -193.49632497 43.47076798 -193.43139648 51.37768555 C-193.43516296 52.39348694 -193.43892944 53.40928833 -193.44281006 54.45587158 C-193.44921182 56.64598865 -193.44894156 58.83613353 -193.44262505 61.02625084 C-193.43347476 64.49431703 -193.44378244 67.96184727 -193.45924377 71.42988586 C-193.49924514 81.28438553 -193.50054114 91.13884081 -193.49829102 100.9934082 C-193.49823994 107.03392018 -193.51739076 113.07414047 -193.54762459 119.11457253 C-193.55844761 122.52812654 -193.54632369 125.94112393 -193.53379822 129.35466003 C-193.5427014 131.44827832 -193.55277536 133.54189206 -193.56420898 135.63549805 C-193.55446548 136.58161453 -193.54472198 137.52773102 -193.53468323 138.5025177 C-193.60792607 145.2226063 -194.95147604 148.5544376 -199.6328125 153.45703125 C-204.47316719 157.09337811 -209.03063979 158.11551339 -215.0625 157.8125 C-220.78697858 156.83984523 -224.17039309 154.21672868 -227.8359375 149.82421875 C-231.41874337 143.94796071 -231.35928385 138.11474697 -231.35302734 131.45532227 C-231.35974457 130.42515488 -231.36646179 129.39498749 -231.37338257 128.33360291 C-231.39235791 124.93198803 -231.39628744 121.53057075 -231.3984375 118.12890625 C-231.40486885 115.75202861 -231.41159746 113.37515176 -231.41860962 110.99827576 C-231.43058347 106.01258512 -231.43429064 101.02696376 -231.43310547 96.04125977 C-231.43290299 89.68663809 -231.4601312 83.33246722 -231.49464989 76.977952 C-231.51701775 72.06450915 -231.52093988 67.15117277 -231.51988602 62.23768425 C-231.52222996 59.89718011 -231.53098454 57.55667249 -231.54655075 55.21621895 C-231.67866331 33.2881367 -229.48455797 16.80016141 -213.76953125 0.484375 C-203.06623638 -10.07991604 -191.52705666 -13.5450035 -176.8125 -13.5625 C-175.74386719 -13.58699219 -174.67523438 -13.61148438 -173.57421875 -13.63671875 C-158.54223181 -13.69151336 -145.66595941 -6.61807692 -135.0625 3.8125 C-131.0625 8.32532051 -131.0625 8.32532051 -131.0625 10.8125 C-130.4025 10.8125 -129.7425 10.8125 -129.0625 10.8125 C-127.0625 13.8125 -127.0625 13.8125 -127.0625 16.8125 C-126.4025 16.8125 -125.7425 16.8125 -125.0625 16.8125 C-124.72516846 17.46210693 -124.38783691 18.11171387 -124.0402832 18.78100586 C-122.4864946 21.77135112 -120.9307597 24.76067978 -119.375 27.75 C-118.84455078 28.77158203 -118.31410156 29.79316406 -117.76757812 30.84570312 C-114.91963204 36.31445848 -112.02364393 41.73574849 -108.93432617 47.07250977 C-108.0625 48.8125 -108.0625 48.8125 -108.0625 50.8125 C-107.4025 50.8125 -106.7425 50.8125 -106.0625 50.8125 C-105.79373047 49.93996582 -105.52496094 49.06743164 -105.24804688 48.16845703 C-104.10465487 44.93182885 -102.74506659 42.12129774 -101.09375 39.1171875 C-100.52269531 38.07175781 -99.95164062 37.02632812 -99.36328125 35.94921875 C-98.76902344 34.87285156 -98.17476562 33.79648438 -97.5625 32.6875 C-96.3849571 30.53931435 -95.20785541 28.39088677 -94.03125 26.2421875 C-93.24911133 24.82268799 -93.24911133 24.82268799 -92.45117188 23.37451172 C-91.27594163 21.20628631 -90.14833474 19.02648317 -89.0625 16.8125 C-88.4025 16.8125 -87.7425 16.8125 -87.0625 16.8125 C-86.81757813 16.08804688 -86.57265625 15.36359375 -86.3203125 14.6171875 C-81.11392133 3.00790534 -68.22844879 -5.95660507 -57.0625 -11.1875 C-37.16247871 -18.27055843 -16.04321577 -13.11786932 0 0 Z M-164.0625 17.8125 C-163.0625 19.8125 -163.0625 19.8125 -163.0625 19.8125 Z M-51.0625 17.8125 C-50.0625 19.8125 -50.0625 19.8125 -50.0625 19.8125 Z " fill="#935D89" transform="translate(357.0625,171.1875)"/>
<path d="M0 0 C2.27669787 1.69428679 4.47258538 3.34610524 6.51953125 5.3125 C6.51953125 5.9725 6.51953125 6.6325 6.51953125 7.3125 C4.20953125 7.3125 1.89953125 7.3125 -0.48046875 7.3125 C-0.48046875 7.9725 -0.48046875 8.6325 -0.48046875 9.3125 C-1.38796875 9.68375 -2.29546875 10.055 -3.23046875 10.4375 C-7.42512021 12.85749123 -9.71852041 15.67728006 -11.07707214 20.37586975 C-11.67453302 24.72524118 -11.62474373 29.03831588 -11.62231445 33.42358398 C-11.62578888 34.43880127 -11.62926331 35.45401855 -11.63284302 36.5 C-11.64018547 38.70110466 -11.64553889 40.90221665 -11.64913368 43.10333061 C-11.65631005 46.58775185 -11.67198442 50.07203317 -11.69047546 53.55641174 C-11.74289823 63.46214922 -11.7909422 73.36780832 -11.80639648 83.27368164 C-11.81647334 89.33555887 -11.8457867 95.39708132 -11.88771629 101.45881844 C-11.90003107 103.76764303 -11.90514669 106.07651771 -11.90291786 108.38537407 C-11.90056696 111.61464255 -11.92271514 114.84289082 -11.95043945 118.07202148 C-11.94053734 119.50062248 -11.94053734 119.50062248 -11.93043518 120.95808411 C-12.02536296 127.69266539 -13.35891543 131.04341057 -18.05078125 135.95703125 C-22.89113594 139.59337811 -27.44860854 140.61551339 -33.48046875 140.3125 C-39.20494733 139.33984523 -42.58836184 136.71672868 -46.25390625 132.32421875 C-49.87216485 126.38981371 -49.76191701 120.5187903 -49.72338867 113.79663086 C-49.72528702 112.75040054 -49.72718536 111.70417023 -49.72914124 110.62623596 C-49.7328384 107.17652839 -49.72215985 103.72703253 -49.7109375 100.27734375 C-49.709745 97.87651087 -49.70929269 95.47567752 -49.70954895 93.07484436 C-49.70798592 88.04718091 -49.69970964 83.01958885 -49.6862793 77.99194336 C-49.66928068 71.5468221 -49.66546536 65.1017792 -49.66622448 58.65663815 C-49.6659526 53.70072176 -49.66046857 48.74482251 -49.65322304 43.78891182 C-49.65004078 41.41224866 -49.64807 39.03558356 -49.64732933 36.65891838 C-49.64516162 33.33890346 -49.63640817 30.01897167 -49.62573242 26.69897461 C-49.6264122 25.22525894 -49.6264122 25.22525894 -49.62710571 23.72177124 C-49.62284073 22.81484024 -49.61857574 21.90790924 -49.61418152 20.97349548 C-49.61250567 20.18946822 -49.61082983 19.40544096 -49.6091032 18.5976553 C-49.46826764 16.09575065 -49.02435197 13.75587527 -48.48046875 11.3125 C-47.82046875 11.3125 -47.16046875 11.3125 -46.48046875 11.3125 C-46.15046875 10.3225 -45.82046875 9.3325 -45.48046875 8.3125 C-45.15046875 8.9725 -44.82046875 9.6325 -44.48046875 10.3125 C-43.88234375 9.301875 -43.28421875 8.29125 -42.66796875 7.25 C-38.86744726 1.88776997 -32.74463016 -2.17637152 -26.5625 -4.3671875 C-16.97877164 -5.84160725 -8.07434194 -5.49309562 0 0 Z " fill="#2A3067" transform="translate(175.48046875,188.6875)"/>
<path d="M0 0 C5.56144231 4.27528435 8.81605665 10.12785745 11.01171875 16.71484375 C11.12708808 18.3560167 11.18813624 20.00127117 11.21704102 21.64624023 C11.24692108 23.16871872 11.24692108 23.16871872 11.27740479 24.72195435 C11.30251129 26.38712601 11.30251129 26.38712601 11.328125 28.0859375 C11.34913269 29.25148163 11.37014038 30.41702576 11.39178467 31.6178894 C11.45872139 35.46263459 11.51747335 39.30743524 11.57421875 43.15234375 C11.5940683 44.45996674 11.61391785 45.76758972 11.6343689 47.11483765 C11.74699376 54.61027956 11.84683117 62.10583147 11.93693829 69.60157681 C11.99271169 74.23543668 12.05480134 78.86917884 12.11914062 83.50292969 C12.20030215 89.54420915 12.25828069 95.58529232 12.29782104 101.62698364 C12.31535493 103.88557145 12.33965783 106.14411731 12.37088013 108.40255737 C12.41242098 111.54462787 12.4283265 114.68581607 12.4375 117.828125 C12.46369415 119.20700394 12.46369415 119.20700394 12.49041748 120.61373901 C12.47165935 126.16463599 11.7160454 129.31065467 8.01171875 133.71484375 C3.9868435 137.52788346 0.29780981 139.56572701 -5.3125 139.8203125 C-11.08852771 139.58148746 -14.74936984 138.10030541 -19.296875 134.578125 C-24.31751488 129.04730463 -24.41895135 123.59769042 -24.37304688 116.52197266 C-24.37841965 115.50982193 -24.38379242 114.4976712 -24.389328 113.45484924 C-24.39909098 111.26305675 -24.40205464 109.07122567 -24.39897156 106.8794136 C-24.3944866 103.40683867 -24.40851401 99.93477147 -24.42736816 96.46224976 C-24.46412467 89.08812266 -24.47785403 81.71404896 -24.48828125 74.33984375 C-24.5003699 65.79955668 -24.52196391 57.25951723 -24.56828308 48.71934128 C-24.58182906 45.30487022 -24.57768653 41.89071409 -24.57287598 38.47622681 C-24.58221994 36.3729818 -24.5923896 34.26974024 -24.60351562 32.16650391 C-24.5973674 31.22286484 -24.59121918 30.27922577 -24.58488464 29.30699158 C-24.64808058 22.48241287 -25.42419986 16.49259859 -30.23828125 11.27734375 C-34.89931297 8.62903028 -39.72347505 8.55530417 -44.98828125 8.71484375 C-42.4084355 2.50410399 -36.38817151 -0.79722429 -30.86328125 -4.22265625 C-20.69450492 -8.01520686 -8.85438715 -5.72316969 0 0 Z " fill="#A75477" transform="translate(360.98828125,189.28515625)"/>
<path d="M0 0 C11.271345 10.23057248 15.78974791 22.94377536 16.9375 37.8125 C17.27818305 45.91872781 17.17122057 54.03720345 17.1328125 62.1484375 C17.12907544 64.48255288 17.12623175 66.81666984 17.12423706 69.15078735 C17.11665518 75.24984176 17.0970543 81.34879866 17.0748291 87.44781494 C17.05425247 93.68915488 17.04521023 99.93051081 17.03515625 106.171875 C17.01380259 118.38545916 16.97973351 130.59897142 16.9375 142.8125 C16.6075 142.8125 16.2775 142.8125 15.9375 142.8125 C15.93087971 142.26419305 15.92425941 141.7158861 15.91743851 141.15096378 C15.75464152 127.77843798 15.57010398 114.40636225 15.36244583 101.0344553 C15.26267258 94.56773476 15.17001207 88.10107713 15.09375 81.6340332 C15.01985017 75.38970723 14.92707938 69.14591761 14.82137299 62.90205193 C14.78438779 60.52320732 14.75413409 58.14424797 14.73081207 55.76523018 C14.69690919 52.4256951 14.63880237 49.0873746 14.57519531 45.74829102 C14.57087494 44.77076874 14.56655457 43.79324646 14.56210327 42.78610229 C14.36110097 34.49373725 12.01724459 26.73225131 5.9375 20.8125 C-3.68684014 14.22996636 -11.47050828 12.77370644 -23.0625 13.8125 C-29.63507539 15.82415896 -35.32025214 19.86722012 -40.0625 24.8125 C-40.5575 25.8025 -40.5575 25.8025 -41.0625 26.8125 C-40.0725 27.3075 -40.0725 27.3075 -39.0625 27.8125 C-41.0425 28.3075 -41.0425 28.3075 -43.0625 28.8125 C-43.0625 29.4725 -43.0625 30.1325 -43.0625 30.8125 C-43.7225 30.8125 -44.3825 30.8125 -45.0625 30.8125 C-45.30742187 31.48667969 -45.55234375 32.16085938 -45.8046875 32.85546875 C-47.61119453 37.10244335 -49.95783847 41.05925373 -52.31640625 45.02148438 C-55.02628637 49.86055602 -55.52576106 53.27118505 -55.0625 58.8125 C-54.7325 59.4725 -54.4025 60.1325 -54.0625 60.8125 C-53.14035572 69.79206891 -54.96451772 75.26879266 -59.9375 82.5625 C-64.45508031 87.34582033 -68.46614155 89.44603564 -75.0625 89.8125 C-77.5 89.375 -77.5 89.375 -79.0625 88.8125 C-79.0625 88.1525 -79.0625 87.4925 -79.0625 86.8125 C-79.7225 86.8125 -80.3825 86.8125 -81.0625 86.8125 C-84.34649145 81.88651283 -84.62939713 76.64344187 -84.0625 70.8125 C-82.51594631 63.35265278 -80.36587482 58.27245997 -74.125 53.625 C-71.0625 51.8125 -71.0625 51.8125 -68.546875 51.01953125 C-65.29006915 49.4372152 -64.72616636 47.96093235 -63.25 44.6875 C-62.755 43.6253125 -62.26 42.563125 -61.75 41.46875 C-61.48445313 40.88738281 -61.21890625 40.30601562 -60.9453125 39.70703125 C-59.29314294 36.16144614 -57.51053802 32.68016118 -55.75 29.1875 C-55.06590201 27.82056474 -54.38227395 26.45339414 -53.69921875 25.0859375 C-52.8203125 23.328125 -51.94140625 21.5703125 -51.0625 19.8125 C-51.7225 19.8125 -52.3825 19.8125 -53.0625 19.8125 C-53.31 20.34875 -53.5575 20.885 -53.8125 21.4375 C-55.35946975 24.37674252 -57.19264369 27.07004408 -59.0625 29.8125 C-60.22191038 26.33426885 -59.77070884 24.35354422 -59.0625 20.8125 C-58.4025 20.8125 -57.7425 20.8125 -57.0625 20.8125 C-57.0625 20.1525 -57.0625 19.4925 -57.0625 18.8125 C-56.4025 18.8125 -55.7425 18.8125 -55.0625 18.8125 C-54.85625 18.02875 -54.65 17.245 -54.4375 16.4375 C-53.0625 13.8125 -53.0625 13.8125 -50.25 12.4375 C-47.06192314 11.81238689 -45.14754149 11.90513486 -42.0625 12.8125 C-42.5884375 14.235625 -42.5884375 14.235625 -43.125 15.6875 C-44.41276777 18.68310172 -44.41276777 18.68310172 -43.0625 20.8125 C-41.11250871 20.61778889 -41.11250871 20.61778889 -39.0625 19.8125 C-38.753125 19.1525 -38.44375 18.4925 -38.125 17.8125 C-37.5990625 16.8225 -37.5990625 16.8225 -37.0625 15.8125 C-34.5 15.1875 -34.5 15.1875 -32.0625 14.8125 C-31.7325 14.1525 -31.4025 13.4925 -31.0625 12.8125 C-29.7425 12.8125 -28.4225 12.8125 -27.0625 12.8125 C-27.0625 12.1525 -27.0625 11.4925 -27.0625 10.8125 C-18.6475 9.8225 -18.6475 9.8225 -10.0625 8.8125 C-9.5675 9.8025 -9.5675 9.8025 -9.0625 10.8125 C-6.7318782 11.16429197 -4.39814933 11.49580179 -2.0625 11.8125 C0.375 12.875 0.375 12.875 1.9375 13.8125 C2.73106801 12.06578412 2.73106801 12.06578412 2.9375 9.8125 C1.58349355 7.08268168 1.58349355 7.08268168 -0.0625 4.8125 C-1.7125 5.1425 -3.3625 5.4725 -5.0625 5.8125 C-5.5575 4.3275 -5.5575 4.3275 -6.0625 2.8125 C-5.4025 2.8125 -4.7425 2.8125 -4.0625 2.8125 C-4.38636813 0.28264472 -4.38636813 0.28264472 -6.0625 -2.1875 C-10.21010724 -3.8465429 -13.79643118 -4.60952294 -18.0625 -3.1875 C-18.5575 -5.6625 -18.5575 -5.6625 -19.0625 -8.1875 C-19.95453125 -8.32027344 -20.8465625 -8.45304688 -21.765625 -8.58984375 C-23.52132812 -8.85474609 -23.52132812 -8.85474609 -25.3125 -9.125 C-26.47265625 -9.29902344 -27.6328125 -9.47304687 -28.828125 -9.65234375 C-32.0625 -10.1875 -32.0625 -10.1875 -34.046875 -10.80078125 C-37.14846129 -11.39585304 -39.94895939 -10.87286797 -43.0625 -10.4375 C-44.8878125 -10.19773438 -44.8878125 -10.19773438 -46.75 -9.953125 C-49.99868922 -9.20224872 -51.62869394 -8.40226351 -54.0625 -6.1875 C-54.7225 -6.5175 -55.3825 -6.8475 -56.0625 -7.1875 C-56.495625 -6.2284375 -56.495625 -6.2284375 -56.9375 -5.25 C-58.0625 -3.1875 -58.0625 -3.1875 -60.0625 -2.1875 C-60.84625 -2.414375 -61.63 -2.64125 -62.4375 -2.875 C-63.30375 -2.978125 -64.17 -3.08125 -65.0625 -3.1875 C-67.68450075 -1.0898994 -69.19475232 1.01087848 -71.0625 3.8125 C-71.908125 4.245625 -72.75375 4.67875 -73.625 5.125 C-76.39121052 6.64576641 -76.39121052 6.64576641 -76.875 10 C-76.9678125 11.3921875 -76.9678125 11.3921875 -77.0625 12.8125 C-77.65546875 12.88339844 -78.2484375 12.95429688 -78.859375 13.02734375 C-81.87703665 14.102787 -82.64488632 15.68407792 -84.3125 18.375 C-84.83328125 19.20128906 -85.3540625 20.02757812 -85.890625 20.87890625 C-86.27734375 21.51699219 -86.6640625 22.15507812 -87.0625 22.8125 C-86.4025 23.1425 -85.7425 23.4725 -85.0625 23.8125 C-85.5575 26.2875 -85.5575 26.2875 -86.0625 28.8125 C-86.7225 28.8125 -87.3825 28.8125 -88.0625 28.8125 C-88.5575 27.3275 -88.5575 27.3275 -89.0625 25.8125 C-91.0425 26.3075 -91.0425 26.3075 -93.0625 26.8125 C-91.9530928 23.32579166 -90.79912334 20.03765763 -89.0625 16.8125 C-88.4025 16.8125 -87.7425 16.8125 -87.0625 16.8125 C-86.81757813 16.08804688 -86.57265625 15.36359375 -86.3203125 14.6171875 C-81.11392133 3.00790534 -68.22844879 -5.95660507 -57.0625 -11.1875 C-37.16247871 -18.27055843 -16.04321577 -13.11786932 0 0 Z M-51.0625 17.8125 C-50.0625 19.8125 -50.0625 19.8125 -50.0625 19.8125 Z " fill="#EBCCBD" transform="translate(357.0625,171.1875)"/>
<path d="M0 0 C1 1 1 1 1.375 3.375 C1.25125 4.24125 1.1275 5.1075 1 6 C-1.5 7.8125 -1.5 7.8125 -4 9 C6.97367594 21.07104354 22.84410834 27.75104079 39 29 C47.86514052 29.40375887 56.3749837 29.3442352 65 27 C66.20849609 26.70802734 66.20849609 26.70802734 67.44140625 26.41015625 C78.65528943 23.44435616 88.79940986 17.20059014 97 9 C95.02 8.01 93.04 7.02 91 6 C90.957279 4.33388095 90.95936168 2.66617115 91 1 C92.55090815 -0.55090815 94.03696233 -0.20677311 96.1875 -0.25 C101.57987779 -0.18152536 105.02822656 1.36624487 109.1875 4.8125 C112.05522733 8.27355023 114.15926938 11.20821946 113.75 15.8125 C113 18 113 18 112 19 C109.625 19.3125 109.625 19.3125 107 19 C105.3359375 16.98046875 105.3359375 16.98046875 104 15 C103.64808594 15.49628906 103.29617188 15.99257813 102.93359375 16.50390625 C99.38837708 21.38205034 95.67572308 26.14373354 91 30 C90.34 30 89.68 30 89 30 C89 30.66 89 31.32 89 32 C88.34 32 87.68 32 87 32 C87 32.66 87 33.32 87 34 C68.6110094 44.28317528 68.6110094 44.28317528 59 46 C58.32066406 46.12761719 57.64132812 46.25523437 56.94140625 46.38671875 C54.95525609 46.69443215 53.0058706 46.87510617 51 47 C50.19304687 47.05285156 49.38609375 47.10570312 48.5546875 47.16015625 C32.71817148 47.69111816 18.40837727 41.95699156 5 34 C5 33.34 5 32.68 5 32 C4.443125 31.7525 3.88625 31.505 3.3125 31.25 C-3.70053741 27.45916897 -7.67982488 21.48026267 -12 15 C-12.391875 15.66 -12.78375 16.32 -13.1875 17 C-15 19 -15 19 -17.6875 19.25 C-18.450625 19.1675 -19.21375 19.085 -20 19 C-21.25 17 -21.25 17 -22 14 C-20.34249236 8.1276872 -16.92675005 4.38714066 -12 1 C-8.28928128 -0.60797811 -3.97250686 -0.13024613 0 0 Z " fill="#3B4076" transform="translate(204,282)"/>
<path d="M0 0 C1.70884005 1.62339805 3.37446717 3.29319053 5 5 C5 5.66 5 6.32 5 7 C5.99 7.33 6.98 7.66 8 8 C9.19506836 9.91430664 9.19506836 9.91430664 10.33984375 12.41015625 C10.76330078 13.31830078 11.18675781 14.22644531 11.62304688 15.16210938 C12.05681641 16.11923828 12.49058594 17.07636719 12.9375 18.0625 C14.22187714 20.84114501 15.50819305 23.6188743 16.79638672 26.39575195 C17.56376497 28.0561219 18.32164385 29.72093856 19.06689453 31.39135742 C20.90771891 35.41643804 20.90771891 35.41643804 24 38.48046875 C24.66 38.71378906 25.32 38.94710937 26 39.1875 C29.91735103 40.61825126 31.66175452 42.53557915 34 46 C35.4140625 49.41796875 35.4140625 49.41796875 36.625 53.1875 C36.83664795 53.84371338 37.0482959 54.49992676 37.26635742 55.17602539 C38.90604697 60.38568806 40.14994072 65.60783295 41 71 C38.525 71.495 38.525 71.495 36 72 C33.69 66.72 31.38 61.44 29 56 C30.06787065 60.27148262 31.61367911 64.16977683 33.2578125 68.24609375 C34.07268048 71.26968283 33.85394698 73.02199501 33 76 C31.23046875 75.9375 31.23046875 75.9375 29 75 C27.58674014 72.65919691 26.43008813 70.47378984 25.3125 68 C23.57488034 63.70874149 23.57488034 63.70874149 21 60 C21.3609375 60.79664063 21.721875 61.59328125 22.09375 62.4140625 C22.5578125 63.47367188 23.021875 64.53328125 23.5 65.625 C23.9640625 66.66914063 24.428125 67.71328125 24.90625 68.7890625 C26.02767398 72.08124291 26.207138 74.55115223 26 78 C24.68 78 23.36 78 22 78 C19.63625588 73.91508299 17.29381715 69.81934716 14.97460938 65.70898438 C14.19491039 64.34177673 13.3905183 62.98866224 12.578125 61.640625 C9.67763212 56.55425343 9.31012076 51.80177129 10 46 C10.495 45.505 10.495 45.505 11 45 C11.42587922 40.74120781 11.21211519 37.93161425 9 34.3125 C7 31 7 31 7 27 C6.34 27 5.68 27 5 27 C4.68546875 26.38511719 4.3709375 25.77023438 4.046875 25.13671875 C3.61890625 24.32847656 3.1909375 23.52023438 2.75 22.6875 C2.12351563 21.48673828 2.12351563 21.48673828 1.484375 20.26171875 C-0.08656783 17.86809796 -1.6267037 16.56698409 -4 15 C-3.814375 14.38125 -3.62875 13.7625 -3.4375 13.125 C-2.76313824 10.95839822 -2.76313824 10.95839822 -4 9 C-3.34 8.34 -2.68 7.68 -2 7 C-1.28072705 4.68234271 -0.6090107 2.34904126 0 0 Z " fill="#514D86" transform="translate(187,184)"/>
<path d="M0 0 C0.33 0.66 0.66 1.32 1 2 C1.66 2.33 2.32 2.66 3 3 C3 5.97 3 8.94 3 12 C3.66 12 4.32 12 5 12 C7.22509586 16.45019172 6.7496005 22.68517152 5.24609375 27.328125 C2.14254362 33.70561625 -1.70277546 38.54270025 -8 42 C-11.95445141 42.88634256 -15.13905056 43.3899418 -19 42 C-19 41.34 -19 40.68 -19 40 C-19.66 40 -20.32 40 -21 40 C-24.28399145 35.07401283 -24.56689713 29.83094187 -24 24 C-22.4596667 16.57015704 -20.287634 11.55704867 -14.1875 6.8125 C-10.83145274 4.9041594 -7.7048012 4.02911145 -4 3 C-1.64040542 1.50513154 -1.64040542 1.50513154 0 0 Z " fill="#803F88" transform="translate(297,218)"/>
<path d="M0 0 C5.39237779 0.06847464 8.84072656 1.61624487 13 5.0625 C15.86772733 8.52355023 17.97176938 11.45821946 17.5625 16.0625 C16.8125 18.25 16.8125 18.25 15.8125 19.25 C13.4375 19.5625 13.4375 19.5625 10.8125 19.25 C9.1484375 17.23046875 9.1484375 17.23046875 7.8125 15.25 C7.46058594 15.74628906 7.10867188 16.24257813 6.74609375 16.75390625 C3.20087708 21.63205034 -0.51177692 26.39373354 -5.1875 30.25 C-5.8475 30.25 -6.5075 30.25 -7.1875 30.25 C-7.1875 30.91 -7.1875 31.57 -7.1875 32.25 C-7.8475 32.25 -8.5075 32.25 -9.1875 32.25 C-9.1875 32.91 -9.1875 33.57 -9.1875 34.25 C-10.1775 33.755 -10.1775 33.755 -11.1875 33.25 C-10.61165568 30.86435923 -9.96522405 28.58317216 -9.1875 26.25 C-9.93773437 26.72050781 -10.68796875 27.19101562 -11.4609375 27.67578125 C-20.55542354 33.20806936 -28.61408644 36.27098023 -39.1875 37.25 C-38.8575 35.6 -38.5275 33.95 -38.1875 32.25 C-39.5075 32.25 -40.8275 32.25 -42.1875 32.25 C-42.1875 32.91 -42.1875 33.57 -42.1875 34.25 C-42.8475 34.25 -43.5075 34.25 -44.1875 34.25 C-44.1875 33.26 -44.1875 32.27 -44.1875 31.25 C-45.14011719 31.26160156 -46.09273437 31.27320313 -47.07421875 31.28515625 C-48.32847656 31.29417969 -49.58273438 31.30320312 -50.875 31.3125 C-52.11636719 31.32410156 -53.35773438 31.33570313 -54.63671875 31.34765625 C-57.64985454 31.26478673 -60.27025339 30.95839449 -63.1875 30.25 C-63.1875 29.92 -63.1875 29.59 -63.1875 29.25 C-62.57342285 29.26047363 -61.9593457 29.27094727 -61.32666016 29.28173828 C-58.48865003 29.32384209 -55.65070599 29.34949622 -52.8125 29.375 C-51.36423828 29.40013672 -51.36423828 29.40013672 -49.88671875 29.42578125 C-30.62091578 29.55508194 -14.68866651 22.7520345 -0.1875 10.25 C0.1425 9.92 0.4725 9.59 0.8125 9.25 C-1.1675 8.26 -3.1475 7.27 -5.1875 6.25 C-5.230221 4.58388095 -5.22813832 2.91617115 -5.1875 1.25 C-3.63659185 -0.30090815 -2.15053767 0.04322689 0 0 Z " fill="#765195" transform="translate(300.1875,281.75)"/>
<path d="M0 0 C1.99897128 0.33944795 3.99875639 0.67421616 6 1 C6 1.33 6 1.66 6 2 C5.24976563 2.01417969 4.49953125 2.02835938 3.7265625 2.04296875 C-7.0824721 2.54666432 -15.45395626 6.13088405 -23 14 C-23.33 14.66 -23.66 15.32 -24 16 C-23.34 16.33 -22.68 16.66 -22 17 C-23.32 17.33 -24.64 17.66 -26 18 C-26 18.66 -26 19.32 -26 20 C-26.66 20 -27.32 20 -28 20 C-28.24621094 20.67417969 -28.49242187 21.34835938 -28.74609375 22.04296875 C-30.54286749 26.28022022 -32.85365559 30.23499926 -35.16601562 34.20898438 C-37.74898436 38.86405741 -38.61659843 42.68546434 -39 48 C-39.33 48 -39.66 48 -40 48 C-40.04898437 47.37351563 -40.09796875 46.74703125 -40.1484375 46.1015625 C-40.22320312 45.28429687 -40.29796875 44.46703125 -40.375 43.625 C-40.44460938 42.81289062 -40.51421875 42.00078125 -40.5859375 41.1640625 C-40.82892588 38.79665809 -40.82892588 38.79665809 -43 37 C-44.65 38.32 -46.3 39.64 -48 41 C-48.66 40.67 -49.32 40.34 -50 40 C-49.319375 39.01 -48.63875 38.02 -47.9375 37 C-44.92022243 32.2083575 -42.76188448 27.11206595 -40.58764648 21.90039062 C-38.68629709 17.38613375 -36.5034216 13.21254094 -34 9 C-34.66 9 -35.32 9 -36 9 C-36.37125 9.804375 -36.37125 9.804375 -36.75 10.625 C-38.29696975 13.56424252 -40.13014369 16.25754408 -42 19 C-43.15941038 15.52176885 -42.70820884 13.54104422 -42 10 C-41.34 10 -40.68 10 -40 10 C-40 9.34 -40 8.68 -40 8 C-39.34 8 -38.68 8 -38 8 C-37.79375 7.21625 -37.5875 6.4325 -37.375 5.625 C-36 3 -36 3 -33.1875 1.625 C-29.99942314 0.99988689 -28.08504149 1.09263486 -25 2 C-25.5259375 3.423125 -25.5259375 3.423125 -26.0625 4.875 C-27.35026777 7.87060172 -27.35026777 7.87060172 -26 10 C-24.05000871 9.80528889 -24.05000871 9.80528889 -22 9 C-21.690625 8.34 -21.38125 7.68 -21.0625 7 C-20.5365625 6.01 -20.5365625 6.01 -20 5 C-17.4375 4.375 -17.4375 4.375 -15 4 C-14.67 3.34 -14.34 2.68 -14 2 C-12.68 2 -11.36 2 -10 2 C-10 1.34 -10 0.68 -10 0 C-6.25553856 -0.96286151 -3.73773154 -0.91164184 0 0 Z M-34 7 C-33 9 -33 9 -33 9 Z " fill="#DD8B73" transform="translate(340,182)"/>
<path d="M0 0 C1.70884005 1.62339805 3.37446717 3.29319053 5 5 C5 5.66 5 6.32 5 7 C5.99 7.33 6.98 7.66 8 8 C9.19506836 9.91430664 9.19506836 9.91430664 10.33984375 12.41015625 C10.76330078 13.31830078 11.18675781 14.22644531 11.62304688 15.16210938 C12.05681641 16.11923828 12.49058594 17.07636719 12.9375 18.0625 C13.80011365 19.92869415 14.66338586 21.79458404 15.52734375 23.66015625 C15.94097168 24.5639502 16.35459961 25.46774414 16.78076172 26.39892578 C17.90497707 28.79728189 19.0949489 31.1462271 20.31640625 33.49609375 C22 37 22 37 22 40 C21.4225 39.62875 20.845 39.2575 20.25 38.875 C18.04194293 37.75266456 18.04194293 37.75266456 15.875 38.625 C13.72245592 40.20353232 12.98141939 41.54645152 12 44 C11.5978125 42.453125 11.5978125 42.453125 11.1875 40.875 C10.45413727 38.26338452 9.6290252 36.27231865 8.375 33.8125 C7 31 7 31 7 27 C6.34 27 5.68 27 5 27 C4.68546875 26.38511719 4.3709375 25.77023438 4.046875 25.13671875 C3.61890625 24.32847656 3.1909375 23.52023438 2.75 22.6875 C2.12351563 21.48673828 2.12351563 21.48673828 1.484375 20.26171875 C-0.08656783 17.86809796 -1.6267037 16.56698409 -4 15 C-3.814375 14.38125 -3.62875 13.7625 -3.4375 13.125 C-2.76313824 10.95839822 -2.76313824 10.95839822 -4 9 C-3.34 8.34 -2.68 7.68 -2 7 C-1.28072705 4.68234271 -0.6090107 2.34904126 0 0 Z " fill="#655793" transform="translate(187,184)"/>
<path d="M0 0 C1 1 1 1 1.375 3.375 C1.25125 4.24125 1.1275 5.1075 1 6 C-1.5 7.8125 -1.5 7.8125 -4 9 C2.08252511 15.69077762 9.51552023 20.86443139 18 24 C17.01 24.66 16.02 25.32 15 26 C14.484375 25.67 13.96875 25.34 13.4375 25 C10.21973488 23.67989123 7.4429472 23.86757895 4 24 C4 23.01 4 22.02 4 21 C3.01 20.34 2.02 19.68 1 19 C-0.1875 16.875 -0.1875 16.875 -1 15 C-2.98 15 -4.96 15 -7 15 C-6.67 16.98 -6.34 18.96 -6 21 C-5.01 21 -4.02 21 -3 21 C-1.25 22.25 -1.25 22.25 0 24 C-0.3125 26.1875 -0.3125 26.1875 -1 28 C-5.16510947 23.95058802 -8.77697825 19.83453262 -12 15 C-12.391875 15.66 -12.78375 16.32 -13.1875 17 C-15 19 -15 19 -17.6875 19.25 C-18.450625 19.1675 -19.21375 19.085 -20 19 C-21.25 17 -21.25 17 -22 14 C-20.34249236 8.1276872 -16.92675005 4.38714066 -12 1 C-8.28928128 -0.60797811 -3.97250686 -0.13024613 0 0 Z " fill="#343E66" transform="translate(204,282)"/>
<path d="M0 0 C5.39237779 0.06847464 8.84072656 1.61624487 13 5.0625 C15.86772733 8.52355023 17.97176938 11.45821946 17.5625 16.0625 C16.8125 18.25 16.8125 18.25 15.8125 19.25 C13.4375 19.5625 13.4375 19.5625 10.8125 19.25 C9 17.25 9 17.25 7.8125 15.25 C5.3375 18.715 5.3375 18.715 2.8125 22.25 C2.8125 21.26 2.8125 20.27 2.8125 19.25 C2.1525 18.92 1.4925 18.59 0.8125 18.25 C0.8125 17.59 0.8125 16.93 0.8125 16.25 C-0.115625 16.4975 -0.115625 16.4975 -1.0625 16.75 C-3.70506073 17.37177899 -4.7373653 17.47506735 -7.1875 16.25 C-4.5475 13.94 -1.9075 11.63 0.8125 9.25 C-1.1675 8.26 -3.1475 7.27 -5.1875 6.25 C-5.230221 4.58388095 -5.22813832 2.91617115 -5.1875 1.25 C-3.63659185 -0.30090815 -2.15053767 0.04322689 0 0 Z " fill="#985D99" transform="translate(300.1875,281.75)"/>
<path d="M0 0 C3.20694882 -0.01731614 6.41057194 -0.00102445 9.6171875 0.04296875 C9.6171875 0.37296875 9.6171875 0.70296875 9.6171875 1.04296875 C8.65296875 1.15253906 7.68875 1.26210937 6.6953125 1.375 C5.43203125 1.53355469 4.16875 1.69210938 2.8671875 1.85546875 C1.61421875 2.00628906 0.36125 2.15710938 -0.9296875 2.3125 C-4.29331011 3.02403555 -5.89330431 3.7483463 -8.3828125 6.04296875 C-9.0428125 5.71296875 -9.7028125 5.38296875 -10.3828125 5.04296875 C-10.8159375 6.00203125 -10.8159375 6.00203125 -11.2578125 6.98046875 C-12.3828125 9.04296875 -12.3828125 9.04296875 -14.3828125 10.04296875 C-15.1665625 9.81609375 -15.9503125 9.58921875 -16.7578125 9.35546875 C-17.6240625 9.25234375 -18.4903125 9.14921875 -19.3828125 9.04296875 C-22.00481325 11.14056935 -23.51506482 13.24134723 -25.3828125 16.04296875 C-26.2284375 16.47609375 -27.0740625 16.90921875 -27.9453125 17.35546875 C-30.71152302 18.87623516 -30.71152302 18.87623516 -31.1953125 22.23046875 C-31.288125 23.62265625 -31.288125 23.62265625 -31.3828125 25.04296875 C-31.97578125 25.11386719 -32.56875 25.18476563 -33.1796875 25.2578125 C-36.19734915 26.33325575 -36.96519882 27.91454667 -38.6328125 30.60546875 C-39.15359375 31.43175781 -39.674375 32.25804687 -40.2109375 33.109375 C-40.59765625 33.74746094 -40.984375 34.38554687 -41.3828125 35.04296875 C-40.7228125 35.37296875 -40.0628125 35.70296875 -39.3828125 36.04296875 C-39.8778125 38.51796875 -39.8778125 38.51796875 -40.3828125 41.04296875 C-41.0428125 41.04296875 -41.7028125 41.04296875 -42.3828125 41.04296875 C-42.8778125 39.55796875 -42.8778125 39.55796875 -43.3828125 38.04296875 C-45.3628125 38.53796875 -45.3628125 38.53796875 -47.3828125 39.04296875 C-46.2734053 35.55626041 -45.11943584 32.26812638 -43.3828125 29.04296875 C-42.7228125 29.04296875 -42.0628125 29.04296875 -41.3828125 29.04296875 C-41.13789063 28.31851563 -40.89296875 27.5940625 -40.640625 26.84765625 C-35.53418313 15.4612424 -22.54278652 5.9151698 -11.3828125 1.04296875 C-7.39482671 0.14245583 -4.06870841 0.05168105 0 0 Z " fill="#EDAB85" transform="translate(311.3828125,158.95703125)"/>
<path d="M0 0 C0.66 0.33 1.32 0.66 2 1 C1.6875 2.9375 1.6875 2.9375 1 5 C0.01 5.33 -0.98 5.66 -2 6 C-2 7.32 -2 8.64 -2 10 C-1.46890625 9.65066406 -0.9378125 9.30132812 -0.390625 8.94140625 C0.31578125 8.48636719 1.0221875 8.03132812 1.75 7.5625 C2.79414063 6.88380859 2.79414063 6.88380859 3.859375 6.19140625 C12.07463762 1.61904293 23.1169695 3.64548147 31.7578125 5.953125 C34.46200068 7.21570763 35.57664146 8.38887329 37 11 C36.67 11.99 36.34 12.98 36 14 C35.46890625 13.65066406 34.9378125 13.30132812 34.390625 12.94140625 C33.68421875 12.48636719 32.9778125 12.03132812 32.25 11.5625 C31.55390625 11.11003906 30.8578125 10.65757812 30.140625 10.19140625 C23.66337852 6.58636943 14.62515513 7.06316635 7.55078125 8.49609375 C1.17122449 10.71452508 -3.97980387 14.24161318 -7.75 19.8125 C-8.4925 20.864375 -9.235 21.91625 -10 23 C-10.99 23 -11.98 23 -13 23 C-12.72231756 15.64141544 -10.21084441 10.0307036 -6 4 C-4.03402847 2.19379139 -2.40662635 1.20331317 0 0 Z " fill="#324485" transform="translate(141,177)"/>
<path d="M0 0 C1 3 1 3 0.1875 4.9375 C-0.204375 5.618125 -0.59625 6.29875 -1 7 C-1.27884033 7.65911377 -1.55768066 8.31822754 -1.8449707 8.99731445 C-3.21198452 11.36755634 -4.21536659 11.95659136 -6.66796875 13.10546875 C-7.39693359 13.44900391 -8.12589844 13.79253906 -8.87695312 14.14648438 C-9.63943359 14.49001953 -10.40191406 14.83355469 -11.1875 15.1875 C-11.93064453 15.54263672 -12.67378906 15.89777344 -13.43945312 16.26367188 C-18.00692604 18.37327593 -21.98637099 19.55508193 -27 20 C-26.67 19.01 -26.34 18.02 -26 17 C-25.34 17 -24.68 17 -24 17 C-25.83333333 13.83333333 -25.83333333 13.83333333 -29 12 C-28.11699219 11.78085937 -27.23398437 11.56171875 -26.32421875 11.3359375 C-18.1444041 9.17456865 -11.31774822 6.34103708 -4 2 C-2.67302367 1.32076805 -1.34187818 0.6492959 0 0 Z " fill="#4F4C84" transform="translate(291,307)"/>
<path d="M0 0 C0.33 0 0.66 0 1 0 C1.62504694 8.69484944 2.05543375 17.29697845 1.96875 26.01953125 C2.00709074 29.67627897 2.34076845 33.25105127 2.78125 36.87890625 C3 39 3 39 3 43 C3.99 43 4.98 43 6 43 C6 45.97 6 48.94 6 52 C7.03125 51.979375 8.0625 51.95875 9.125 51.9375 C13 52 13 52 16.3125 52.5625 C18.96193326 53.26283158 18.96193326 53.26283158 21 52 C21.66 52.33 22.32 52.66 23 53 C22.67 52.01 22.34 51.02 22 50 C25 49 25 49 27 49 C27.99 48.34 28.98 47.68 30 47 C30.33 48.32 30.66 49.64 31 51 C25.96899751 55.43911985 21.84415333 57.27782104 15.125 57 C9.5977846 56.31536003 5.92127516 53.86360935 2 50 C-0.13363651 46.79954524 -0.24672228 46.01370564 -0.22705078 42.3449707 C-0.22689972 41.40422195 -0.22674866 40.46347321 -0.22659302 39.49421692 C-0.21627045 38.48163315 -0.20594788 37.46904938 -0.1953125 36.42578125 C-0.1924826 35.38681198 -0.18965271 34.34784271 -0.18673706 33.27738953 C-0.17553282 29.95564303 -0.15042764 26.63416515 -0.125 23.3125 C-0.11497052 21.06185285 -0.10584462 18.81120148 -0.09765625 16.56054688 C-0.0755927 11.04027278 -0.04211271 5.52015558 0 0 Z " fill="#7A4E8D" transform="translate(338,272)"/>
<path d="M0 0 C0.33 0.66 0.66 1.32 1 2 C1.66 2.33 2.32 2.66 3 3 C3 5.97 3 8.94 3 12 C3.66 12 4.32 12 5 12 C7.24832901 16.49665802 6.72935884 22.75054178 5.2109375 27.43359375 C3.47230473 31.05021535 2.41968532 32.72020978 -1 35 C-0.4910781 32.45539052 0.0187601 29.91245285 0.5625 27.375 C1.09058121 24.91076672 1.09058121 24.91076672 1 22 C1.31669821 19.66435067 1.64820803 17.3306218 2 15 C1.01 14.34 0.02 13.68 -1 13 C-1.1875 9.375 -1.1875 9.375 -1 6 C-5.455 6.495 -5.455 6.495 -10 7 C-10.33 7.99 -10.66 8.98 -11 10 C-11.99 10 -12.98 10 -14 10 C-14.433125 11.2065625 -14.433125 11.2065625 -14.875 12.4375 C-16 15 -16 15 -18 16 C-18.33 14.35 -18.66 12.7 -19 11 C-14.11811994 6.96769387 -10.2291957 4.55729893 -4 3 C-1.64040542 1.50513154 -1.64040542 1.50513154 0 0 Z " fill="#A3507C" transform="translate(297,218)"/>
<path d="M0 0 C4.20696128 1.42777089 7.14972107 3.4882949 10.5625 6.3125 C11.49191406 7.07175781 12.42132813 7.83101562 13.37890625 8.61328125 C15.91651447 10.92397964 18.0109429 13.20595979 20 16 C20 16.66 20 17.32 20 18 C20.66 18 21.32 18 22 18 C24 21 24 21 24 24 C24.66 24 25.32 24 26 24 C26.33 25.32 26.66 26.64 27 28 C26.01 27.67 25.02 27.34 24 27 C23.67 27.33 23.34 27.66 23 28 C22.67 27.34 22.34 26.68 22 26 C21.01 26 20.02 26 19 26 C18.67 24.02 18.34 22.04 18 20 C16.68 20 15.36 20 14 20 C10.99098218 17.59278574 9.63148782 15.78892691 9 12 C8.10664203 9.64214682 8.10664203 9.64214682 4.9375 8.875 C3.968125 8.58625 2.99875 8.2975 2 8 C2.33 7.34 2.66 6.68 3 6 C2.34 5.01 1.68 4.02 1 3 C0.67 2.01 0.34 1.02 0 0 Z " fill="#AF71A5" transform="translate(206,164)"/>
<path d="M0 0 C0 0.66 0 1.32 0 2 C-0.99 2.33 -1.98 2.66 -3 3 C-3 2.34 -3 1.68 -3 1 C-4.43739513 0.97287934 -5.87493863 0.95354933 -7.3125 0.9375 C-8.11300781 0.92589844 -8.91351563 0.91429687 -9.73828125 0.90234375 C-12.16861334 0.90342145 -12.16861334 0.90342145 -15 2 C-15.268125 2.61875 -15.53625 3.2375 -15.8125 3.875 C-17.50123744 6.89695121 -19.95152386 7.50819253 -23 9 C-23.33 9.99 -23.66 10.98 -24 12 C-25.85625 11.9690625 -25.85625 11.9690625 -27.75 11.9375 C-30.6640825 11.93233319 -33.20953327 12.06984442 -36 13 C-33.42015425 6.78926024 -27.39989026 3.48793196 -21.875 0.0625 C-15.72746556 -2.31202159 -6.11637136 -2.03879045 0 0 Z " fill="#63355E" transform="translate(352,185)"/>
<path d="M0 0 C0.66 0.33 1.32 0.66 2 1 C2.625 3.5625 2.625 3.5625 3 6 C3.66 6 4.32 6 5 6 C5 7.32 5 8.64 5 10 C5.66 10 6.32 10 7 10 C11.59225513 18.261959 11.59225513 18.261959 11 23 C6 18 6 18 3.6875 15.5 C-2.77142645 9.49169633 -8.66018614 7.30010294 -17.33984375 5.67578125 C-18.21769531 5.45277344 -19.09554688 5.22976562 -20 5 C-20.33 4.34 -20.66 3.68 -21 3 C-16.545 2.505 -16.545 2.505 -12 2 C-12 2.66 -12 3.32 -12 4 C-10.39125 4.185625 -10.39125 4.185625 -8.75 4.375 C-5.62136385 4.89643936 -3.66519576 5.40088254 -1 7 C-0.31292445 4.50935112 0 2.62113708 0 0 Z " fill="#F2B380" transform="translate(360,178)"/>
<path d="M0 0 C3 3.625 3 3.625 3 7 C3.99 7 4.98 7 6 7 C6 6.34 6 5.68 6 5 C6.99 5 7.98 5 9 5 C7.97927551 8.48747535 6.84277257 11.25728125 4.9375 14.375 C2.63550686 18.20024511 2.31016744 21.58011403 2 26 C1.67 26 1.34 26 1 26 C0.92652344 25.06027344 0.92652344 25.06027344 0.8515625 24.1015625 C0.77679688 23.28429687 0.70203125 22.46703125 0.625 21.625 C0.55539062 20.81289062 0.48578125 20.00078125 0.4140625 19.1640625 C0.17107412 16.79665809 0.17107412 16.79665809 -2 15 C-3.65 16.32 -5.3 17.64 -7 19 C-7.66 18.67 -8.32 18.34 -9 18 C-8.68546875 17.53851563 -8.3709375 17.07703125 -8.046875 16.6015625 C-4.57865253 11.31565717 -2.17395942 5.92677206 0 0 Z " fill="#BF7786" transform="translate(299,204)"/>
<path d="M0 0 C0.66 0.33 1.32 0.66 2 1 C2 2.65 2 4.3 2 6 C1.67 5.34 1.34 4.68 1 4 C1 9.25827303 2.95681381 13.02094937 5.00390625 17.80859375 C6.03878232 21.12425552 6.01967494 22.73337668 5 26 C3.234375 25.9296875 3.234375 25.9296875 1 25 C-0.44762313 22.69910308 -1.61292696 20.56995105 -2.75 18.125 C-3.06582031 17.48691406 -3.38164062 16.84882813 -3.70703125 16.19140625 C-5.1080189 13.28632797 -6 11.26257196 -6 8 C-5.360625 7.7525 -4.72125 7.505 -4.0625 7.25 C-1.82922897 6.19743256 -1.82922897 6.19743256 -1.3125 4 C-1.209375 3.34 -1.10625 2.68 -1 2 C-0.67 1.34 -0.34 0.68 0 0 Z " fill="#7A769F" transform="translate(215,234)"/>
<path d="M0 0 C1.65 0 3.3 0 5 0 C5.33 0.66 5.66 1.32 6 2 C5.01 2.495 5.01 2.495 4 3 C10.08252511 9.69077762 17.51552023 14.86443139 26 18 C25.01 18.66 24.02 19.32 23 20 C22.484375 19.67 21.96875 19.34 21.4375 19 C18.21973488 17.67989123 15.4429472 17.86757895 12 18 C12 17.01 12 16.02 12 15 C11.01 14.34 10.02 13.68 9 13 C7.8125 10.875 7.8125 10.875 7 9 C5.02 9 3.04 9 1 9 C1.33 10.98 1.66 12.96 2 15 C2.99 15 3.98 15 5 15 C6.75 16.25 6.75 16.25 8 18 C7.6875 20.1875 7.6875 20.1875 7 22 C-1.38356164 13.84931507 -1.38356164 13.84931507 -3 9 C-1.02 8.34 0.96 7.68 3 7 C3 6.01 3 5.02 3 4 C2.34 4 1.68 4 1 4 C0.67 2.68 0.34 1.36 0 0 Z " fill="#5A6382" transform="translate(196,288)"/>
<path d="M0 0 C0.99 0.33 1.98 0.66 3 1 C0.78065836 4.32901247 -0.34683329 4.75023244 -4 6 C-2.84826645 3.53199953 -1.95216435 1.95216435 0 0 Z M-9 7 C-7.68 7 -6.36 7 -5 7 C-5 8.98 -5 10.96 -5 13 C-5.59296875 13.07089844 -6.1859375 13.14179688 -6.796875 13.21484375 C-9.81453665 14.290287 -10.58238632 15.87157792 -12.25 18.5625 C-12.77078125 19.38878906 -13.2915625 20.21507812 -13.828125 21.06640625 C-14.21484375 21.70449219 -14.6015625 22.34257812 -15 23 C-14.34 23.33 -13.68 23.66 -13 24 C-13.33 25.65 -13.66 27.3 -14 29 C-14.66 29 -15.32 29 -16 29 C-16.33 28.01 -16.66 27.02 -17 26 C-18.32 26.33 -19.64 26.66 -21 27 C-19.8905928 23.51329166 -18.73662334 20.22515763 -17 17 C-16.34 17 -15.68 17 -15 17 C-14.7525 16.278125 -14.505 15.55625 -14.25 14.8125 C-12.85834094 11.68126711 -11.38823189 9.458474 -9 7 Z " fill="#DE9B92" transform="translate(285,171)"/>
<path d="M0 0 C6.8875 6.525 6.8875 6.525 7.125 11.75 C7.08375 12.4925 7.0425 13.235 7 14 C7.66 14 8.32 14 9 14 C8.67 15.32 8.34 16.64 8 18 C6.02 17.67 4.04 17.34 2 17 C2 16.34 2 15.68 2 15 C-0.97 14.505 -0.97 14.505 -4 14 C-3.67 13.01 -3.34 12.02 -3 11 C-3.33 10.34 -3.66 9.68 -4 9 C-3.34 8.34 -2.68 7.68 -2 7 C-1.28072705 4.68234271 -0.6090107 2.34904126 0 0 Z " fill="#553C8A" transform="translate(187,184)"/>
<path d="M0 0 C0.66 0 1.32 0 2 0 C1.34 1.65 0.68 3.3 0 5 C1.32 6.32 2.64 7.64 4 9 C2.125 13.75 2.125 13.75 1 16 C-0.32 16 -1.64 16 -3 16 C-3 16.66 -3 17.32 -3 18 C-3.99 18 -4.98 18 -6 18 C-8.03595109 13.92809781 -8.14719638 11.39758611 -7 7 C-4.9413783 3.91206745 -4.1446688 3.52161393 -1 2 C-0.67 1.34 -0.34 0.68 0 0 Z " fill="#D48176" transform="translate(308,193)"/>
<path d="M0 0 C0.495 0.99 0.495 0.99 1 2 C0.01 2 -0.98 2 -2 2 C-2 3.32 -2 4.64 -2 6 C-0.35 5.34 1.3 4.68 3 4 C3.66 4.66 4.32 5.32 5 6 C3.06524329 6.53093324 1.12706845 7.04942317 -0.8125 7.5625 C-1.89144531 7.85253906 -2.97039062 8.14257812 -4.08203125 8.44140625 C-7 9 -7 9 -10 8 C-9.67 6.68 -9.34 5.36 -9 4 C-10.32 4 -11.64 4 -13 4 C-13 4.66 -13 5.32 -13 6 C-13.66 6 -14.32 6 -15 6 C-15 5.01 -15 4.02 -15 3 C-15.95261719 3.01160156 -16.90523437 3.02320313 -17.88671875 3.03515625 C-19.14097656 3.04417969 -20.39523438 3.05320312 -21.6875 3.0625 C-22.92886719 3.07410156 -24.17023438 3.08570313 -25.44921875 3.09765625 C-28.46235454 3.01478673 -31.08275339 2.70839449 -34 2 C-34 1.67 -34 1.34 -34 1 C-33.09459473 1.00785522 -33.09459473 1.00785522 -32.17089844 1.01586914 C-16.05703181 1.180973 -16.05703181 1.180973 0 0 Z " fill="#7B659E" transform="translate(271,310)"/>
<path d="M0 0 C0 0.66 0 1.32 0 2 C0.99 1.67 1.98 1.34 3 1 C1.72276562 6.81851217 -1.43806003 10.36335918 -6 14 C-6.66 14 -7.32 14 -8 14 C-8 13.34 -8 12.68 -8 12 C-7.34 12 -6.68 12 -6 12 C-6 11.34 -6 10.68 -6 10 C-5.34 10 -4.68 10 -4 10 C-3.67 8.68 -3.34 7.36 -3 6 C-4.7015625 6.2784375 -4.7015625 6.2784375 -6.4375 6.5625 C-8.2009375 6.7790625 -8.2009375 6.7790625 -10 7 C-10.33 6.67 -10.66 6.34 -11 6 C-11.33 6.66 -11.66 7.32 -12 8 C-14.97 7.505 -14.97 7.505 -18 7 C-16.66666667 6 -15.33333333 5 -14 4 C-13.0409375 3.2265625 -13.0409375 3.2265625 -12.0625 2.4375 C-7.85101401 -0.49777811 -5.00321622 -1.42949035 0 0 Z " fill="#7A488A" transform="translate(301,298)"/>
<path d="M0 0 C0 0.99 0 1.98 0 3 C2.475 3.99 2.475 3.99 5 5 C5 6.66666667 5 8.33333333 5 10 C4.34 10 3.68 10 3 10 C3 10.66 3 11.32 3 12 C4.65 12 6.3 12 8 12 C8 12.33 8 12.66 8 13 C1.25 13.125 1.25 13.125 -1 12 C-1 10.68 -1 9.36 -1 8 C-1.99 7.67 -2.98 7.34 -4 7 C-4 6.34 -4 5.68 -4 5 C-4.99 5 -5.98 5 -7 5 C-7.33 3.02 -7.66 1.04 -8 -1 C-4.59745511 -2.2151946 -3.06748874 -1.86240388 0 0 Z " fill="#202C5E" transform="translate(205,298)"/>
<path d="M0 0 C4.55421609 5.66340912 7.77693274 12.61913897 7 20 C5.68 20 4.36 20 3 20 C1.04296875 17.4453125 1.04296875 17.4453125 -0.8125 14.125 C-1.43769531 13.03445312 -2.06289062 11.94390625 -2.70703125 10.8203125 C-3.13371094 9.88960937 -3.56039062 8.95890625 -4 8 C-3.67 7.34 -3.34 6.68 -3 6 C-2.34 6.33 -1.68 6.66 -1 7 C-0.67 4.69 -0.34 2.38 0 0 Z " fill="#5C5F85" transform="translate(206,242)"/>
<path d="M0 0 C0 3 0 3 -1.3984375 4.5703125 C-6.71927753 8.75547917 -11.18160016 10.47545102 -18 10 C-22.04397823 9.15151726 -25.15095875 7.92863886 -28 4.8125 C-28.33 4.214375 -28.66 3.61625 -29 3 C-26.23723823 3.52268466 -23.6739124 4.10869587 -21 5 C-14.31166497 6.20213032 -14.31166497 6.20213032 -8 4 C-8 3.01 -8 2.02 -8 1 C-7.01 1.33 -6.02 1.66 -5 2 C-2.3430809 1.12085312 -2.3430809 1.12085312 0 0 Z " fill="#4D506E" transform="translate(160,319)"/>
<path d="M0 0 C2.5843218 2.5843218 3.10401163 4.89375577 4.1875 8.375 C4.55230469 9.51710937 4.91710937 10.65921875 5.29296875 11.8359375 C5.95860385 14.81474653 6.07938697 16.20871903 5 19 C3.68 19 2.36 19 1 19 C-0.03040167 16.71220962 -1.04952018 14.42048864 -2.0625 12.125 C-2.35705078 11.47402344 -2.65160156 10.82304687 -2.95507812 10.15234375 C-3.69661513 8.45989459 -4.35439001 6.73131425 -5 5 C-4.67 4.34 -4.34 3.68 -4 3 C-3.34 3 -2.68 3 -2 3 C-1.01 4.485 -1.01 4.485 0 6 C-0.185625 5.38125 -0.37125 4.7625 -0.5625 4.125 C-1 2 -1 2 0 0 Z " fill="#6C6394" transform="translate(222,237)"/>
<path d="M0 0 C4.51790439 2.19789943 6.27516103 4.27938809 8 9 C8.07905064 11.33199388 8.08798769 13.66832622 8 16 C8.33 16.99 8.66 17.98 9 19 C6 19 6 19 4.37890625 17.78515625 C2.72981534 15.65021419 2.38647141 14.08338005 1.9375 11.4375 C1.35397552 7.80364322 1.35397552 7.80364322 -1 5 C-0.625 2.375 -0.625 2.375 0 0 Z " fill="#62588F" transform="translate(214,224)"/>
<path d="M0 0 C1 3 1 3 0.25 5 C-1.00251155 7.00401848 -2.18584684 8.4882057 -4 10 C-4.66 10 -5.32 10 -6 10 C-6.33 9.34 -6.66 8.68 -7 8 C-7.99 8.33 -8.98 8.66 -10 9 C-10 9.99 -10 10.98 -10 12 C-13.96 11.67 -17.92 11.34 -22 11 C-22 10.67 -22 10.34 -22 10 C-21.41734375 9.86464844 -20.8346875 9.72929687 -20.234375 9.58984375 C-12.71379949 7.61510144 -6.55954762 4.11380564 0 0 Z " fill="#4C3A7D" transform="translate(291,307)"/>
<path d="M0 0 C0.99 0.33 1.98 0.66 3 1 C1.25518455 5.53652018 -0.11964186 8.87067892 -4 12 C-4.66 12 -5.32 12 -6 12 C-6.11214844 12.56203125 -6.22429687 13.1240625 -6.33984375 13.703125 C-7.09057339 16.31513108 -8.21167376 18.39471322 -9.5625 20.75 C-10.01753906 21.54921875 -10.47257812 22.3484375 -10.94140625 23.171875 C-11.29074219 23.77515625 -11.64007813 24.3784375 -12 25 C-12.66 24.67 -13.32 24.34 -14 24 C-13.6875 22.0625 -13.6875 22.0625 -13 20 C-12.01 19.67 -11.02 19.34 -10 19 C-9.41398649 17.12033131 -9.41398649 17.12033131 -9.1875 14.875 C-8.23178061 9.76966139 -5.96506481 6.35091075 -2 3 C-1.34 3 -0.68 3 0 3 C0 2.01 0 1.02 0 0 Z " fill="#B66590" transform="translate(282,192)"/>
<path d="M0 0 C0.66 0.33 1.32 0.66 2 1 C1.67 2.65 1.34 4.3 1 6 C0.34 6 -0.32 6 -1 6 C-1.268125 6.804375 -1.53625 7.60875 -1.8125 8.4375 C-2.204375 9.283125 -2.59625 10.12875 -3 11 C-3.99 11.33 -4.98 11.66 -6 12 C-5.49396008 9.83125748 -5.00016187 8.00032373 -4 6 C-4.66 6 -5.32 6 -6 6 C-6.2475 6.53625 -6.495 7.0725 -6.75 7.625 C-8.29696975 10.56424252 -10.13014369 13.25754408 -12 16 C-13.15941038 12.52176885 -12.70820884 10.54104422 -12 7 C-11.34 7 -10.68 7 -10 7 C-10 6.34 -10 5.68 -10 5 C-9.36191406 4.72285156 -8.72382813 4.44570312 -8.06640625 4.16015625 C-7.24011719 3.79792969 -6.41382813 3.43570313 -5.5625 3.0625 C-4.73878906 2.70285156 -3.91507812 2.34320313 -3.06640625 1.97265625 C-1.05589883 1.16877677 -1.05589883 1.16877677 0 0 Z M-4 4 C-3 6 -3 6 -3 6 Z " fill="#E0A49D" transform="translate(310,185)"/>
<path d="M0 0 C8.69301398 4.52282032 14.10390682 13.8441856 17.34375 22.84375 C18.49139889 26.61459635 19.12079181 29.78615709 19.0625 33.75 C19.05347656 34.54921875 19.04445313 35.3484375 19.03515625 36.171875 C19.02355469 36.77515625 19.01195312 37.3784375 19 38 C16.25417257 35.25417257 16.18232629 32.75911106 15.7890625 28.96484375 C15.47808664 24.52143819 15.47808664 24.52143819 13 21 C13 20.01 13 19.02 13 18 C12.34 18 11.68 18 11 18 C11 16.68 11 15.36 11 14 C10.34 14 9.68 14 9 14 C8.71125 13.195625 8.4225 12.39125 8.125 11.5625 C7.26737432 8.8673532 7.26737432 8.8673532 5 8 C4 6.33333333 3 4.66666667 2 3 C1.34 2.67 0.68 2.34 0 2 C0 1.34 0 0.68 0 0 Z " fill="#F3D4A8" transform="translate(354,170)"/>
<path d="M0 0 C1.99954746 -0.04254356 4.00041636 -0.04080783 6 0 C7 1 7 1 7.0625 3.5625 C7.041875 4.366875 7.02125 5.17125 7 6 C4.36 5.67 1.72 5.34 -1 5 C-0.67 6.32 -0.34 7.64 0 9 C0.66 9 1.32 9 2 9 C2 9.99 2 10.98 2 12 C1.01 12.495 1.01 12.495 0 13 C-0.99 14.485 -0.99 14.485 -2 16 C-2 15.34 -2 14.68 -2 14 C-2.66 14 -3.32 14 -4 14 C-4.75 10.75 -4.75 10.75 -5 7 C-3.125 4.75 -3.125 4.75 -1 3 C-0.67 2.01 -0.34 1.02 0 0 Z " fill="#2E3960" transform="translate(197,283)"/>
<path d="M0 0 C8.17157385 -0.35076708 16.43095699 -0.53397827 24 3 C25.8671875 4.921875 25.8671875 4.921875 27 7 C26.67 7.99 26.34 8.98 26 10 C24.989375 9.21625 23.97875 8.4325 22.9375 7.625 C16.94284267 3.79839233 9.91453326 3.603221 3 3 C3 2.34 3 1.68 3 1 C2.01 0.67 1.02 0.34 0 0 Z " fill="#554A91" transform="translate(151,181)"/>
<path d="M0 0 C0.33 0 0.66 0 1 0 C1.02505615 1.10512939 1.0501123 2.21025879 1.07592773 3.34887695 C1.17006509 7.44714044 1.27027041 11.54523694 1.37231445 15.64331055 C1.41563934 17.41735937 1.45731619 19.19144923 1.49731445 20.96557617 C1.5550762 23.51493705 1.61875362 26.0640918 1.68359375 28.61328125 C1.70866249 29.80405022 1.70866249 29.80405022 1.73423767 31.01887512 C1.82117718 34.24683077 1.97250366 36.91751099 3 40 C1.68 39.67 0.36 39.34 -1 39 C-1.02491426 34.73161194 -1.04296047 30.46326361 -1.05493164 26.19482422 C-1.05992785 24.74592348 -1.06672709 23.29702769 -1.07543945 21.84814453 C-1.16225376 7.02843217 -1.16225376 7.02843217 0 0 Z " fill="#292E4D" transform="translate(128,278)"/>
<path d="M0 0 C7.71841387 3.59305473 13.8473094 7.19294167 18 15 C17.75 17.375 17.75 17.375 17 19 C16.34 18.34 15.68 17.68 15 17 C15 16.01 15 15.02 15 14 C13.02 14.33 11.04 14.66 9 15 C9 14.01 9 13.02 9 12 C7.82639883 8.08799609 6.56934455 6.05507716 3 4 C2.01 4 1.02 4 0 4 C0 2.68 0 1.36 0 0 Z " fill="#834552" transform="translate(352,185)"/>
<path d="M0 0 C0.103125 1.093125 0.20625 2.18625 0.3125 3.3125 C0.97307727 6.85559629 1.2027092 7.93243723 4 10 C3.67 10.66 3.34 11.32 3 12 C0 10 -3 8 -6 6 C-8.50896686 5.54398739 -8.50896686 5.54398739 -11.1875 5.375 C-12.08855469 5.30023438 -12.98960937 5.22546875 -13.91796875 5.1484375 C-14.60503906 5.09945312 -15.29210937 5.05046875 -16 5 C-14 3 -14 3 -12.0546875 2.8046875 C-10.03645833 2.86979167 -8.01822917 2.93489583 -6 3 C-6.33 2.34 -6.66 1.68 -7 1 C-3.375 -1.125 -3.375 -1.125 0 0 Z " fill="#743967" transform="translate(334,193)"/>
<path d="M0 0 C0.67675781 -0.00386719 1.35351562 -0.00773438 2.05078125 -0.01171875 C5.14073767 -0.00562416 7.54679311 0.1405977 10.5 1.125 C10.5 1.785 10.5 2.445 10.5 3.125 C9.51 3.455 8.52 3.785 7.5 4.125 C7.5 3.465 7.5 2.805 7.5 2.125 C-0.75087498 1.56561865 -9.48759769 2.7963004 -16.5234375 7.46875 C-17.87984698 8.6530263 -19.19369044 9.88568068 -20.5 11.125 C-22.875 11.9375 -22.875 11.9375 -24.5 12.125 C-18.96818883 3.57583728 -9.77165188 -0.05583801 0 0 Z " fill="#6F334E" transform="translate(341.5,183.875)"/>
<path d="M0 0 C0.33 0 0.66 0 1 0 C1.19658808 1.41543415 1.38187546 2.83244031 1.5625 4.25 C1.66691406 5.03890625 1.77132813 5.8278125 1.87890625 6.640625 C2.00168108 9.032754 1.6362064 10.71058574 1 13 C0.77579878 19.38973489 1.34592728 25.64615076 2 32 C1.01 32 0.02 32 -1 32 C-1.02469321 27.7641643 -1.04285671 23.52836658 -1.05493164 19.29248047 C-1.05996474 17.8510668 -1.06679173 16.40965824 -1.07543945 14.96826172 C-1.08754983 12.89809915 -1.09323847 10.82800399 -1.09765625 8.7578125 C-1.10289307 7.5114502 -1.10812988 6.26508789 -1.11352539 4.98095703 C-1 2 -1 2 0 0 Z " fill="#B6616E" transform="translate(339,224)"/>
<path d="M0 0 C1.95220847 2.9283127 3.5335065 5.86314325 5.125 9 C5.93324219 10.5778125 5.93324219 10.5778125 6.7578125 12.1875 C8 15 8 15 8 18 C7.4225 17.62875 6.845 17.2575 6.25 16.875 C4.04194293 15.75266456 4.04194293 15.75266456 1.875 16.625 C-0.27754408 18.20353232 -1.01858061 19.54645152 -2 22 C-2 20.02 -2 18.04 -2 16 C-1.34 15.67 -0.68 15.34 0 15 C1.19156496 9.69211971 0.83536335 5.29063457 0 0 Z " fill="#8279A6" transform="translate(201,206)"/>
<path d="M0 0 C2.97069541 2.54631035 4.4775751 5.42230149 6 9 C5.67 9.66 5.34 10.32 5 11 C4.34 11 3.68 11 3 11 C3 9.68 3 8.36 3 7 C2.34 7 1.68 7 1 7 C0.67 4.69 0.34 2.38 0 0 Z M-10 7 C-7.03 7.495 -7.03 7.495 -4 8 C-4 8.66 -4 9.32 -4 10 C-2.02 10 -0.04 10 2 10 C2.33 10.66 2.66 11.32 3 12 C2.01 12.99 1.02 13.98 0 15 C-5.01113235 13.5682479 -6.94469549 11.01554307 -10 7 Z " fill="#746698" transform="translate(193,191)"/>
<path d="M0 0 C0.33 0 0.66 0 1 0 C0.85915204 1.79206547 0.71216299 3.58364917 0.5625 5.375 C0.48128906 6.37273437 0.40007812 7.37046875 0.31640625 8.3984375 C0 11 0 11 -1 13 C-0.34 13.66 0.32 14.32 1 15 C-0.65 15.33 -2.3 15.66 -4 16 C-4 15.34 -4 14.68 -4 14 C-4.99 14.33 -5.98 14.66 -7 15 C-5.45454854 9.52067211 -2.84456788 4.88570819 0 0 Z " fill="#B57C9C" transform="translate(263,198)"/>
<path d="M0 0 C1 1 1 1 1.0625 3.5625 C1.041875 4.366875 1.02125 5.17125 1 6 C0.34 4.68 -0.32 3.36 -1 2 C-2.98 2 -4.96 2 -7 2 C-6.67 2.66 -6.34 3.32 -6 4 C-7.63412443 5.70840281 -8.86906094 6.93453047 -11 8 C-11 7.34 -11 6.68 -11 6 C-13.31 6.66 -15.62 7.32 -18 8 C-16.60440273 4.6273066 -15.1078412 2.91954898 -12 1 C-8.17421088 -0.50298858 -4.04258875 -0.13254389 0 0 Z " fill="#747C96" transform="translate(204,282)"/>
<path d="M0 0 C2.16874252 0.50603992 3.99967627 0.99983813 6 2 C6.33 1.34 6.66 0.68 7 0 C7.66 0 8.32 0 9 0 C9.625 1.8125 9.625 1.8125 10 4 C9.01 5.485 9.01 5.485 8 7 C9.65 7 11.3 7 13 7 C13 7.66 13 8.32 13 9 C4.87284371 8.8089771 4.87284371 8.8089771 1.4375 5.625 C0 3 0 3 0 0 Z " fill="#554B84" transform="translate(238,265)"/>
<path d="M0 0 C4.34305189 2.04378913 8.24102266 4.71455173 12.24609375 7.34375 C14.78491089 8.87064144 17.22132447 9.99140634 20 11 C19.01 11.66 18.02 12.32 17 13 C16.484375 12.67 15.96875 12.34 15.4375 12 C12.21973488 10.67989123 9.4429472 10.86757895 6 11 C6 10.01 6 9.02 6 8 C5.01 7.34 4.02 6.68 3 6 C1.93753473 4.03247172 0.92862192 2.03412421 0 0 Z " fill="#5F6588" transform="translate(202,295)"/>
<path d="M0 0 C0.33 0.99 0.66 1.98 1 3 C1.66 3 2.32 3 3 3 C3.33 3.66 3.66 4.32 4 5 C6.01669827 6.13350534 6.01669827 6.13350534 8 7 C7.34 7 6.68 7 6 7 C5.34 8.32 4.68 9.64 4 11 C3.34 10.67 2.68 10.34 2 10 C2.061875 11.093125 2.12375 12.18625 2.1875 13.3125 C2 17 2 17 0.48828125 18.73046875 C-0.00285156 19.14941406 -0.49398438 19.56835938 -1 20 C-0.85769192 18.58297487 -0.71099254 17.1663904 -0.5625 15.75 C-0.48128906 14.96109375 -0.40007812 14.1721875 -0.31640625 13.359375 C0 11 0 11 0.59375 8.90625 C1.22156559 5.96034609 0.06009277 3.74376953 -1 1 C-0.67 0.67 -0.34 0.34 0 0 Z " fill="#8A4483" transform="translate(272,213)"/>
<path d="M0 0 C1.875 0.3125 1.875 0.3125 4 1 C6 4 6 4 7 6 C6.67 6.66 6.34 7.32 6 8 C7.32 8.33 8.64 8.66 10 9 C7.6875 9.25 7.6875 9.25 5 9 C3.1875 7 3.1875 7 2 5 C0.35 7.31 -1.3 9.62 -3 12 C-3 7.48763697 -2.19470368 3.95046662 0 0 Z " fill="#A57DA9" transform="translate(306,292)"/>
<path d="M0 0 C-1.50075464 3.82010273 -3.66276681 5.67169777 -7 8 C-7.845625 8.309375 -8.69125 8.61875 -9.5625 8.9375 C-12.70335686 10.30659145 -14.0419824 12.24427152 -16 15 C-16.99 14.67 -17.98 14.34 -19 14 C-5.82352941 0 -5.82352941 0 0 0 Z " fill="#E1AE97" transform="translate(296,163)"/>
<path d="M0 0 C3.34373475 0.55728913 6.03312999 1.35173889 9 3 C8.67 4.32 8.34 5.64 8 7 C8.66 7.33 9.32 7.66 10 8 C9.01 8.33 8.02 8.66 7 9 C7 8.34 7 7.68 7 7 C6.01 7.33 5.02 7.66 4 8 C3.67 7.67 3.34 7.34 3 7 C2.67 7.66 2.34 8.32 2 9 C1.34 8.67 0.68 8.34 0 8 C-0.625 5.9375 -0.625 5.9375 -1 4 C-0.01 3.67 0.98 3.34 2 3 C2 2.34 2 1.68 2 1 C1.34 0.67 0.68 0.34 0 0 Z " fill="#94519E" transform="translate(196,160)"/>
<path d="M0 0 C0.66 0.33 1.32 0.66 2 1 C2 3.97 2 6.94 2 10 C2.99 10 3.98 10 5 10 C5 11.65 5 13.3 5 15 C3.02 15.99 3.02 15.99 1 17 C-1.55694972 13.16457543 -1.04045639 11.34097467 -0.625 6.8125 C-0.51414062 5.54019531 -0.40328125 4.26789063 -0.2890625 2.95703125 C-0.19367188 1.98121094 -0.09828125 1.00539063 0 0 Z " fill="#784D98" transform="translate(339,305)"/>
<path d="M0 0 C0.33 0.99 0.66 1.98 1 3 C0.01 4.485 0.01 4.485 -1 6 C-1.66 6 -2.32 6 -3 6 C-3 6.66 -3 7.32 -3 8 C-3.66 8 -4.32 8 -5 8 C-5 9.32 -5 10.64 -5 12 C-5.66 12 -6.32 12 -7 12 C-7 12.66 -7 13.32 -7 14 C-7.66 13.67 -8.32 13.34 -9 13 C-8.69096017 11.66082739 -8.34976758 10.32911682 -8 9 C-7.773125 7.989375 -7.54625 6.97875 -7.3125 5.9375 C-5.61944308 2.14827736 -3.77882445 1.47867044 0 0 Z " fill="#674789" transform="translate(298,302)"/>
<path d="M0 0 C0.66 0.33 1.32 0.66 2 1 C2.625 3.5625 2.625 3.5625 3 6 C3.66 6 4.32 6 5 6 C5 7.32 5 8.64 5 10 C5.66 10 6.32 10 7 10 C7.33 11.32 7.66 12.64 8 14 C5 14 5 14 2.3125 11.6875 C-0.87318384 7.98521878 0 4.74326944 0 0 Z " fill="#F4B263" transform="translate(360,178)"/>
<path d="M0 0 C0 0.66 0 1.32 0 2 C-0.74765625 2.25394531 -1.4953125 2.50789062 -2.265625 2.76953125 C-3.25046875 3.11371094 -4.2353125 3.45789063 -5.25 3.8125 C-6.22453125 4.14894531 -7.1990625 4.48539063 -8.203125 4.83203125 C-10.86537588 5.94378127 -12.73495089 7.25110146 -15 9 C-15.66 9 -16.32 9 -17 9 C-13.97187726 1.8062871 -7.40531808 -0.7713873 0 0 Z " fill="#4B569C" transform="translate(154,182)"/>
<path d="M0 0 C0.66 0 1.32 0 2 0 C5 5.75 5 5.75 5 8 C4.01 8 3.02 8 2 8 C2 8.66 2 9.32 2 10 C1.01 10 0.02 10 -1 10 C-1.66 7.69 -2.32 5.38 -3 3 C-2.01 2.67 -1.02 2.34 0 2 C0 1.34 0 0.68 0 0 Z " fill="#C7696D" transform="translate(303,201)"/>
<path d="M0 0 C2.54406562 2.54406562 2.32580106 3.59251606 2.375 7.125 C2.28364091 12.4730204 1.23460956 16.68358123 -2 21 C-2.99 21.66 -3.98 22.32 -5 23 C-4.32829194 19.1936543 -3.27253436 15.64793184 -2 12 C-1.01 12 -0.02 12 1 12 C0.67 8.04 0.34 4.08 0 0 Z " fill="#BF9DBA" transform="translate(301,230)"/>
<path d="M0 0 C0.66 0 1.32 0 2 0 C3.62077189 5.61036424 4.55579195 9.46245077 2 15 C1.34 14.67 0.68 14.34 0 14 C0.33 12.68 0.66 11.36 1 10 C0.01 10.33 -0.98 10.66 -2 11 C-2.33 9.68 -2.66 8.36 -3 7 C-2.34 7 -1.68 7 -1 7 C-0.67 4.69 -0.34 2.38 0 0 Z " fill="#473A7B" transform="translate(199,207)"/>
<path d="M0 0 C0.33 0.99 0.66 1.98 1 3 C-0.4375 5.1875 -0.4375 5.1875 -2 7 C-1.34 7.33 -0.68 7.66 0 8 C-0.33 9.65 -0.66 11.3 -1 13 C-1.66 13 -2.32 13 -3 13 C-3.33 12.01 -3.66 11.02 -4 10 C-5.32 10.33 -6.64 10.66 -8 11 C-6.6402082 5.43721535 -6.6402082 5.43721535 -3.4375 3.25 C-2.2309375 2.63125 -2.2309375 2.63125 -1 2 C-0.67 1.34 -0.34 0.68 0 0 Z " fill="#C88290" transform="translate(272,187)"/>
<path d="M0 0 C2.42130331 2.42130331 2.52840504 3.80111377 3.125 7.125 C3.29257813 8.03507813 3.46015625 8.94515625 3.6328125 9.8828125 C3.81457031 10.93082031 3.81457031 10.93082031 4 12 C2.35 12.33 0.7 12.66 -1 13 C-1.66 10.69 -2.32 8.38 -3 6 C-2.01 6 -1.02 6 0 6 C0 4.02 0 2.04 0 0 Z " fill="#8E89AD" transform="translate(224,243)"/>
<path d="M0 0 C0.33 0 0.66 0 1 0 C2.32388229 6.43028541 3.24794402 12.4294834 3 19 C1.68 19.33 0.36 19.66 -1 20 C-1 17 -1 17 -0.5 13.9375 C0.09377412 9.26152881 0.08520178 4.70503164 0 0 Z " fill="#974F7C" transform="translate(299,223)"/>
<path d="M0 0 C1.875 0.25 1.875 0.25 4 1 C5.25 3.0625 5.25 3.0625 6 5 C7.093125 4.79375 8.18625 4.5875 9.3125 4.375 C13 4 13 4 16 6 C11.67265609 8.22923777 8.71599818 7.92470553 4 7 C4 6.34 4 5.68 4 5 C3.34 5 2.68 5 2 5 C1.34 3.35 0.68 1.7 0 0 Z " fill="#A184B2" transform="translate(274,253)"/>
<path d="M0 0 C0.66 0.33 1.32 0.66 2 1 C1.113125 1.721875 0.22625 2.44375 -0.6875 3.1875 C-2.73779313 4.89207625 -4.6081754 6.6081754 -6.5 8.5 C-9.20634644 11.20634644 -12.03327597 13.58522463 -15 16 C-14.67 14.35 -14.34 12.7 -14 11 C-13.01 11 -12.02 11 -11 11 C-11 10.01 -11 9.02 -11 8 C-9.35546875 6.46484375 -9.35546875 6.46484375 -7.1875 4.9375 C-6.47980469 4.43089844 -5.77210938 3.92429688 -5.04296875 3.40234375 C-3.37114385 2.25476222 -1.68722523 1.12481682 0 0 Z " fill="#DA8074" transform="translate(299,176)"/>
<path d="M0 0 C1.35439668 2.70879335 1.06501451 5.00933268 1 8 C0.34 8 -0.32 8 -1 8 C-1.33 11.63 -1.66 15.26 -2 19 C-2.66 19 -3.32 19 -4 19 C-4.36182611 12.48713003 -3.29943477 7.11196911 -1 1 C-0.67 0.67 -0.34 0.34 0 0 Z " fill="#9879A6" transform="translate(277,231)"/>
<path d="M0 0 C1.73378263 1.50763707 2.91542947 2.84143025 4 4.875 C4 7 4 7 1.6875 9.75 C-1 12 -1 12 -3 12 C-2.14285714 3.42857143 -2.14285714 3.42857143 0 0 Z " fill="#535F91" transform="translate(131,188)"/>
<path d="M0 0 C1 3 1 3 0.07421875 5.375 C-0.38339844 6.24125 -0.84101563 7.1075 -1.3125 8 C-1.76238281 8.86625 -2.21226562 9.7325 -2.67578125 10.625 C-4 13 -4 13 -6 16 C-6 15.01 -6 14.02 -6 13 C-6.66 12.67 -7.32 12.34 -8 12 C-7.34 12 -6.68 12 -6 12 C-5.87625 10.865625 -5.7525 9.73125 -5.625 8.5625 C-5.41875 7.386875 -5.2125 6.21125 -5 5 C-4.34 4.67 -3.68 4.34 -3 4 C-3.33 3.34 -3.66 2.68 -4 2 C-2.68 2 -1.36 2 0 2 C0 1.34 0 0.68 0 0 Z " fill="#C690A0" transform="translate(296,201)"/>
<path d="M0 0 C4.67692308 1.47692308 4.67692308 1.47692308 6.3125 4.125 C6.539375 4.74375 6.76625 5.3625 7 6 C4.69 6 2.38 6 0 6 C0 6.66 0 7.32 0 8 C-0.99 7.67 -1.98 7.34 -3 7 C-2.01 4.69 -1.02 2.38 0 0 Z " fill="#3B2E66" transform="translate(175,190)"/>
<path d="M0 0 C0.99 0.33 1.98 0.66 3 1 C2.484375 1.391875 1.96875 1.78375 1.4375 2.1875 C0.963125 2.785625 0.48875 3.38375 0 4 C0.25475806 6.52391899 0.25475806 6.52391899 1 9 C1 9.99 1 10.98 1 12 C-2.3 9.03 -5.6 6.06 -9 3 C-8.01 2.67 -7.02 2.34 -6 2 C-5.34 2.66 -4.68 3.32 -4 4 C-2.68 2.68 -1.36 1.36 0 0 Z " fill="#94519B" transform="translate(209,174)"/>
<path d="M0 0 C3 1 3 1 4.25 2.75 C5.17574966 5.52724898 4.77341204 7.21571665 4 10 C2.35 10 0.7 10 -1 10 C-0.67 6.7 -0.34 3.4 0 0 Z " fill="#885286" transform="translate(313,290)"/>
<path d="M0 0 C2 1 2 1 3.1875 3.75 C4.01105448 7.04421792 3.94405381 8.79021705 3 12 C1.125 11.8125 1.125 11.8125 -1 11 C-2.25 8.4375 -2.25 8.4375 -3 6 C-2.01 6 -1.02 6 0 6 C0 4.02 0 2.04 0 0 Z " fill="#9A99B2" transform="translate(217,248)"/>
<path d="M0 0 C0.66 0 1.32 0 2 0 C4 3 4 3 4 6 C4.66 6 5.32 6 6 6 C6.33 7.32 6.66 8.64 7 10 C6.01 9.67 5.02 9.34 4 9 C3.67 9.33 3.34 9.66 3 10 C2.67 9.34 2.34 8.68 2 8 C1.01 8 0.02 8 -1 8 C-0.67 5.36 -0.34 2.72 0 0 Z " fill="#B883AE" transform="translate(226,182)"/>
<path d="M0 0 C1.98 0 3.96 0 6 0 C6.33 0.66 6.66 1.32 7 2 C8.6476038 2.71247732 10.31763529 3.37400383 12 4 C13.34050052 4.65213539 14.67661368 5.31379969 16 6 C16 6.66 16 7.32 16 8 C11.85701333 7.40165275 8.81805623 5.99335715 5.1875 3.9375 C4.21167969 3.38964844 3.23585937 2.84179688 2.23046875 2.27734375 C1.49441406 1.85582031 0.75835937 1.43429687 0 1 C0 0.67 0 0.34 0 0 Z " fill="#6A6F8C" transform="translate(211,316)"/>
<path d="M0 0 C0.57234375 0.22558594 1.1446875 0.45117188 1.734375 0.68359375 C0.744375 0.68359375 -0.245625 0.68359375 -1.265625 0.68359375 C-1.595625 2.00359375 -1.925625 3.32359375 -2.265625 4.68359375 C-3.255625 4.68359375 -4.245625 4.68359375 -5.265625 4.68359375 C-5.69875 5.89015625 -5.69875 5.89015625 -6.140625 7.12109375 C-7.265625 9.68359375 -7.265625 9.68359375 -9.265625 10.68359375 C-9.595625 9.03359375 -9.925625 7.38359375 -10.265625 5.68359375 C-9.02827516 4.64746342 -7.77517863 3.63011573 -6.515625 2.62109375 C-5.81953125 2.05261719 -5.1234375 1.48414063 -4.40625 0.8984375 C-2.265625 -0.31640625 -2.265625 -0.31640625 0 0 Z " fill="#936797" transform="translate(288.265625,223.31640625)"/>
<path d="M0 0 C1.125 1.625 1.125 1.625 2 4 C1.125 7.25 1.125 7.25 0 10 C-1.65 8.35 -3.3 6.7 -5 5 C-3.35 3.35 -1.7 1.7 0 0 Z " fill="#3A4188" transform="translate(151,167)"/>
<path d="M0 0 C4.83628305 0.99043705 9.47618873 1.95698846 14 4 C14 4.33 14 4.66 14 5 C8.78020872 5.1799928 4.92737019 4.97094808 0 3 C0 2.01 0 1.02 0 0 Z " fill="#4D5378" transform="translate(227,322)"/>
<path d="M0 0 C0.33 0 0.66 0 1 0 C1 6.6 1 13.2 1 20 C0.01 20.33 -0.98 20.66 -2 21 C-2.042721 19.33388095 -2.04063832 17.66617115 -2 16 C-1.67 15.67 -1.34 15.34 -1 15 C-0.86431681 11.33655389 -0.83538574 8.49384279 -2 5 C-1.34 5 -0.68 5 0 5 C0 3.35 0 1.7 0 0 Z " fill="#783D85" transform="translate(371,297)"/>
<path d="M0 0 C1.65 0 3.3 0 5 0 C5 0.66 5 1.32 5 2 C5.66 2 6.32 2 7 2 C7 2.99 7 3.98 7 5 C6.01 5.495 6.01 5.495 5 6 C4.01 7.485 4.01 7.485 3 9 C3 8.34 3 7.68 3 7 C2.34 7 1.68 7 1 7 C0.67 4.69 0.34 2.38 0 0 Z " fill="#1F2B57" transform="translate(192,290)"/>
<path d="M0 0 C0.66 0.33 1.32 0.66 2 1 C0.125 6.875 0.125 6.875 -1 8 C-1.23075082 9.34747084 -1.41153063 10.70377565 -1.5625 12.0625 C-1.7790625 14.0115625 -1.7790625 14.0115625 -2 16 C-2.33 16 -2.66 16 -3 16 C-3.16947579 14.58366664 -3.33545507 13.16691467 -3.5 11.75 C-3.5928125 10.96109375 -3.685625 10.1721875 -3.78125 9.359375 C-4 7 -4 7 -4 3 C-3.01 3 -2.02 3 -1 3 C-0.67 2.01 -0.34 1.02 0 0 Z " fill="#CA97AA" transform="translate(303,214)"/>
<path d="M0 0 C0.66 0.33 1.32 0.66 2 1 C1.34 1.66 0.68 2.32 0 3 C-0.226875 3.804375 -0.45375 4.60875 -0.6875 5.4375 C-2.6311913 9.23232588 -5.0480455 9.60949749 -9 11 C-7.59155282 7.78475695 -5.89655214 5.67816132 -3.375 3.25 C-2.74335938 2.63640625 -2.11171875 2.0228125 -1.4609375 1.390625 C-0.73777344 0.70226562 -0.73777344 0.70226562 0 0 Z " fill="#767DAF" transform="translate(147,168)"/>
<path d="M0 0 C0.33 0.99 0.66 1.98 1 3 C2.32 2.67 3.64 2.34 5 2 C2.44977144 4.97526665 -0.40293526 6.50122302 -4 8 C-4.99 7.67 -5.98 7.34 -7 7 C-5.68 6.34 -4.36 5.68 -3 5 C-3 4.01 -3 3.02 -3 2 C-2.01 1.34 -1.02 0.68 0 0 Z " fill="#77719B" transform="translate(284,314)"/>
<path d="M0 0 C2 1 2 1 3 2 C2.5625 4.0625 2.5625 4.0625 2 6 C1.01 5.67 0.02 5.34 -1 5 C-1.33 5.66 -1.66 6.32 -2 7 C-4.97 6.505 -4.97 6.505 -8 6 C-5.33333333 4 -2.66666667 2 0 0 Z " fill="#956FA2" transform="translate(291,299)"/>
<path d="M0 0 C2.5625 2.25 2.5625 2.25 5 5 C4.8125 7.3125 4.8125 7.3125 4 9 C2.35 9 0.7 9 -1 9 C-2.0326802 6.21176345 -2.04509293 5.1322726 -1.0625 2.25 C-0.711875 1.5075 -0.36125 0.765 0 0 Z " fill="#5D4390" transform="translate(187,184)"/>
<path d="M0 0 C2.5 1.625 2.5 1.625 5 4 C5.3125 7.25 5.3125 7.25 5 10 C4.01 9.34 3.02 8.68 2 8 C2 7.34 2 6.68 2 6 C0.68 6 -0.64 6 -2 6 C-2.33 5.01 -2.66 4.02 -3 3 C-2.34 3 -1.68 3 -1 3 C-0.67 2.01 -0.34 1.02 0 0 Z " fill="#8C73AD" transform="translate(194,185)"/>
<path d="M0 0 C1.134375 0.020625 2.26875 0.04125 3.4375 0.0625 C3.4375 0.7225 3.4375 1.3825 3.4375 2.0625 C1.4575 3.0525 1.4575 3.0525 -0.5625 4.0625 C0.4275 4.7225 1.4175 5.3825 2.4375 6.0625 C0.1275 6.0625 -2.1825 6.0625 -4.5625 6.0625 C-4.605221 4.39638095 -4.60313832 2.72867115 -4.5625 1.0625 C-3.5625 0.0625 -3.5625 0.0625 0 0 Z " fill="#885786" transform="translate(300.5625,282.9375)"/>
<path d="M0 0 C0.66 0 1.32 0 2 0 C1.85923685 1.9587043 1.7122324 3.91696093 1.5625 5.875 C1.48128906 6.96554688 1.40007812 8.05609375 1.31640625 9.1796875 C1 12 1 12 0 14 C-0.66 13.67 -1.32 13.34 -2 13 C-1.979375 12.236875 -1.95875 11.47375 -1.9375 10.6875 C-1.87057159 7.89814214 -1.87057159 7.89814214 -3 5 C-2.34 5 -1.68 5 -1 5 C-0.67 3.35 -0.34 1.7 0 0 Z " fill="#6B4087" transform="translate(268,237)"/>
<path d="M0 0 C0.99 1.32 1.98 2.64 3 4 C1.93453047 6.13093906 0.70840281 7.36587557 -1 9 C-1.99 8.67 -2.98 8.34 -4 8 C-4 7.01 -4 6.02 -4 5 C-3.34 5 -2.68 5 -2 5 C-1.34 3.35 -0.68 1.7 0 0 Z " fill="#AC6FA8" transform="translate(237,199)"/>
<path d="M0 0 C0.87785156 0.00515625 1.75570313 0.0103125 2.66015625 0.015625 C3.53542969 0.01046875 4.41070312 0.0053125 5.3125 0 C7.72265625 0.265625 7.72265625 0.265625 10.72265625 2.265625 C11.41015625 4.890625 11.41015625 4.890625 11.72265625 7.265625 C10.54703125 6.3065625 10.54703125 6.3065625 9.34765625 5.328125 C5.16915447 2.48553845 0.64624027 2.46023306 -4.27734375 2.265625 C-2.27734375 0.265625 -2.27734375 0.265625 0 0 Z " fill="#A5809D" transform="translate(322.27734375,195.734375)"/>
<path d="M0 0 C0.66 0.33 1.32 0.66 2 1 C0.03571172 4.92857656 -3.40215791 7.60143861 -7 10 C-7.33 9.01 -7.66 8.02 -8 7 C-5.42215154 4.35247996 -3.08351902 2.05567935 0 0 Z " fill="#1C1E57" transform="translate(142,188)"/>
<path d="M0 0 C2.31 0.33 4.62 0.66 7 1 C7 1.99 7 2.98 7 4 C6.34 4 5.68 4 5 4 C4.34 5.32 3.68 6.64 3 8 C2.01 8 1.02 8 0 8 C0.66 7.34 1.32 6.68 2 6 C1.01 5.34 0.02 4.68 -1 4 C-0.67 2.68 -0.34 1.36 0 0 Z " fill="#AC70AC" transform="translate(299,285)"/>
<path d="M0 0 C0 1.32 0 2.64 0 4 C-3.28696233 4.79953138 -4.71023192 5.09658936 -8 4 C-8 2.68 -8 1.36 -8 0 C-4.71023192 -1.09658936 -3.28696233 -0.79953138 0 0 Z " fill="#473D82" transform="translate(216,230)"/>
<path d="M0 0 C2 1 2 1 2.8125 2.75 C3.07534333 5.90411993 1.76338194 7.46073001 0 10 C-0.66 9.67 -1.32 9.34 -2 9 C-2 6.69 -2 4.38 -2 2 C-1.34 2 -0.68 2 0 2 C0 1.34 0 0.68 0 0 Z " fill="#8D71A8" transform="translate(268,249)"/>
<path d="M0 0 C-0.33 0.99 -0.66 1.98 -1 3 C-1.66 3 -2.32 3 -3 3 C-3.33 4.32 -3.66 5.64 -4 7 C-4.66 7 -5.32 7 -6 7 C-6.33 8.32 -6.66 9.64 -7 11 C-8.53445094 7.93109813 -7.54984289 5.29905734 -7 2 C-2.25 0 -2.25 0 0 0 Z " fill="#A476A1" transform="translate(281,221)"/>
<path d="M0 0 C-0.33 1.65 -0.66 3.3 -1 5 C-0.34 5 0.32 5 1 5 C0.67 6.32 0.34 7.64 0 9 C-0.99 8.34 -1.98 7.68 -3 7 C-3 6.34 -3 5.68 -3 5 C-3.99 4.67 -4.98 4.34 -6 4 C-2.25 0 -2.25 0 0 0 Z " fill="#573C84" transform="translate(223,216)"/>
<path d="M0 0 C4.01476736 6.02215104 4.28573751 11.99943109 4 19 C0.44760206 15.44760206 0.80892482 10.51602267 0.4375 5.6875 C0.35371094 4.61886719 0.26992188 3.55023438 0.18359375 2.44921875 C0.12300781 1.64097656 0.06242187 0.83273438 0 0 Z " fill="#F0CCB0" transform="translate(369,189)"/>
<path d="M0 0 C0.99 0 1.98 0 3 0 C3 0.99 3 1.98 3 3 C3.99 3 4.98 3 6 3 C7.75 4.25 7.75 4.25 9 6 C8.6875 8.1875 8.6875 8.1875 8 10 C6.33333333 8.33333333 4.66666667 6.66666667 3 5 C2.401875 4.443125 1.80375 3.88625 1.1875 3.3125 C0 2 0 2 0 0 Z " fill="#696F8B" transform="translate(195,300)"/>
<path d="M0 0 C1.65 0 3.3 0 5 0 C5.33 2.31 5.66 4.62 6 7 C4.68 7 3.36 7 2 7 C1.7834375 5.824375 1.7834375 5.824375 1.5625 4.625 C1.12201075 2.03578982 1.12201075 2.03578982 0 0 Z " fill="#443E76" transform="translate(212,247)"/>
<path d="M0 0 C0.99 0.99 1.98 1.98 3 3 C3 4.32 3 5.64 3 7 C3.66 7.33 4.32 7.66 5 8 C4.67 8.99 4.34 9.98 4 11 C1.525 10.01 1.525 10.01 -1 9 C-0.67 6.03 -0.34 3.06 0 0 Z " fill="#6C3C89" transform="translate(275,244)"/>
<path d="M0 0 C2.45391569 3.68087353 2.22802759 6.44355588 2.125 10.6875 C2.11597656 11.38939453 2.10695313 12.09128906 2.09765625 12.81445312 C2.07413704 14.54311525 2.03826713 16.27160145 2 18 C1.67 18 1.34 18 1 18 C1 15.36 1 12.72 1 10 C0.34 9.67 -0.32 9.34 -1 9 C-1 5.72724974 -0.70074844 3.153368 0 0 Z " fill="#B05F63" transform="translate(370,203)"/>
<path d="M0 0 C3.36720387 1.39332574 4.9859524 2.9789286 7 6 C6.67 6.66 6.34 7.32 6 8 C2.52176885 9.15941038 0.54104422 8.70820884 -3 8 C-3 7.67 -3 7.34 -3 7 C-0.69 7 1.62 7 4 7 C3.01 5.824375 3.01 5.824375 2 4.625 C0 2 0 2 0 0 Z " fill="#73629B" transform="translate(178,189)"/>
<path d="M0 0 C4.59306496 1.4859916 7.43569245 3.85014682 11 7 C9 8 9 8 6.625 7.375 C3.49713094 5.7365924 1.99496262 3.88161267 0 1 C0 0.67 0 0.34 0 0 Z " fill="#BF9BBC" transform="translate(206,164)"/>
<path d="M0 0 C0.66 0 1.32 0 2 0 C2 0.99 2 1.98 2 3 C4.31 3 6.62 3 9 3 C9.33 4.32 9.66 5.64 10 7 C4.64951939 6.62671065 2.49087093 5.0042343 -1 1 C-0.67 0.67 -0.34 0.34 0 0 Z " fill="#8E72A5" transform="translate(342,321)"/>
<path d="M0 0 C2.64752004 2.57784846 4.94432065 4.91648098 7 8 C6.625 10.1875 6.625 10.1875 6 12 C5.34 11.34 4.68 10.68 4 10 C4 8.68 4 7.36 4 6 C2.68 5.67 1.36 5.34 0 5 C0 3.35 0 1.7 0 0 Z " fill="#9B504F" transform="translate(363,192)"/>
<path d="M0 0 C0.99 0 1.98 0 3 0 C3 0.66 3 1.32 3 2 C4.32 2.66 5.64 3.32 7 4 C7 4.99 7 5.98 7 7 C5 7 3 7 1 7 C0.67 6.01 0.34 5.02 0 4 C0.66 4 1.32 4 2 4 C1.34 2.68 0.68 1.36 0 0 Z " fill="#F1B76C" transform="translate(351,170)"/>
<path d="M0 0 C3 1 3 1 5 4 C5 4.99 5 5.98 5 7 C4.34 6.67 3.68 6.34 3 6 C3 6.99 3 7.98 3 9 C2.34 9 1.68 9 1 9 C0.67 6.03 0.34 3.06 0 0 Z " fill="#BA607A" transform="translate(288,200)"/>
<path d="M0 0 C0.99 0.33 1.98 0.66 3 1 C1.22972246 5.60272162 -0.18699218 8.7129243 -4 12 C-4 8.37968443 -2.8569494 7.04539702 -1 4 C-0.30420546 1.80869466 -0.30420546 1.80869466 0 0 Z " fill="#BA6378" transform="translate(282,192)"/>
<path d="M0 0 C0.99 0.33 1.98 0.66 3 1 C3.33 3.64 3.66 6.28 4 9 C1.4375 6.75 1.4375 6.75 -1 4 C-0.8125 1.6875 -0.8125 1.6875 0 0 Z " fill="#E9A976" transform="translate(367,192)"/>
<path d="M0 0 C0 0.99 0 1.98 0 3 C-2.69674368 5.49698489 -5.56801397 6.76067171 -9 8 C-8.4375 5.6875 -8.4375 5.6875 -7 3 C-4.72037377 1.65223022 -2.51912228 0.88635784 0 0 Z " fill="#5C2A63" transform="translate(332,187)"/>
<path d="M0 0 C5.0575847 0.47414857 9.01000797 3.00750598 13 6 C13.33 6.66 13.66 7.32 14 8 C10.1509323 7.47985572 8.64257753 6.74828063 6 4 C4.02379014 2.95377125 2.0262871 1.94560065 0 1 C0 0.67 0 0.34 0 0 Z " fill="#F0D6B1" transform="translate(340,162)"/>
<path d="M0 0 C3 3.625 3 3.625 3 7 C2.01 7.66 1.02 8.32 0 9 C-0.66 9.66 -1.32 10.32 -2 11 C-2.66 9.35 -3.32 7.7 -4 6 C-3.01 6.33 -2.02 6.66 -1 7 C-0.67 4.69 -0.34 2.38 0 0 Z " fill="#898BAE" transform="translate(206,242)"/>
<path d="M0 0 C4.67461851 -0.32613618 7.16674383 0.29417212 11 3 C7.75370153 4.08209949 7.12563502 3.78140875 4 3 C3.01 3.33 2.02 3.66 1 4 C0.67 2.68 0.34 1.36 0 0 Z " fill="#F6B872" transform="translate(338,164)"/>
<path d="M0 0 C1.74627478 2.61941217 2.38722388 4.03824877 3 7 C2.34 7 1.68 7 1 7 C1 7.66 1 8.32 1 9 C0.01 8.67 -0.98 8.34 -2 8 C-2.20086443 4.28400809 -2.1519437 3.22791555 0 0 Z " fill="#333669" transform="translate(204,240)"/>
<path d="M0 0 C4.6850059 4.52345397 7.24680426 7.3718775 8 14 C4.084859 10.64416485 1.9204226 6.71933638 0 2 C0 1.34 0 0.68 0 0 Z " fill="#85479B" transform="translate(221,200)"/>
<path d="M0 0 C0 0.99 0 1.98 0 3 C0.99 3.33 1.98 3.66 3 4 C0.4015401 5.29922995 -0.75961451 4.81286289 -3.5625 4.1875 C-4.77099609 3.93033203 -4.77099609 3.93033203 -6.00390625 3.66796875 C-8 3 -8 3 -9 1 C-5.92677456 0.08941469 -3.19902639 -0.08886184 0 0 Z " fill="#EFAC78" transform="translate(348,180)"/>
<path d="M0 0 C0.99 0.33 1.98 0.66 3 1 C4.20568053 5.67201205 4.09382426 10.21496292 4 15 C3.34 14.67 2.68 14.34 2 14 C1.62109375 12.109375 1.62109375 12.109375 1.4375 9.75 C1.14161371 6.43713027 0.73399358 3.25054299 0 0 Z " fill="#9B94BB" transform="translate(229,244)"/>
<path d="M0 0 C0.66 0 1.32 0 2 0 C3.50934217 3.01868434 3.17510672 5.67297229 3 9 C2.01 10.485 2.01 10.485 1 12 C1.33 9.69 1.66 7.38 2 5 C1.34 5 0.68 5 0 5 C-0.33 5.99 -0.66 6.98 -1 8 C-0.67 5.36 -0.34 2.72 0 0 Z " fill="#9065A0" transform="translate(268,232)"/>
<path d="M0 0 C1.32 0.66 2.64 1.32 4 2 C3.67 2.99 3.34 3.98 3 5 C3.99 5.33 4.98 5.66 6 6 C4.35 6.33 2.7 6.66 1 7 C0.34 5.02 -0.32 3.04 -1 1 C-0.67 0.67 -0.34 0.34 0 0 Z " fill="#65508C" transform="translate(211,213)"/>
<path d="M0 0 C2.97069541 2.54631035 4.4775751 5.42230149 6 9 C5.67 9.66 5.34 10.32 5 11 C4.34 11 3.68 11 3 11 C3 9.68 3 8.36 3 7 C2.34 7 1.68 7 1 7 C0.67 4.69 0.34 2.38 0 0 Z " fill="#8A7DAA" transform="translate(193,191)"/>
<path d="M0 0 C0.66 0.33 1.32 0.66 2 1 C1.24266726 2.3410477 0.46867264 3.67269781 -0.3125 5 C-0.74175781 5.7425 -1.17101562 6.485 -1.61328125 7.25 C-2.07089844 7.8275 -2.52851563 8.405 -3 9 C-3.99 9 -4.98 9 -6 9 C-4.47291037 5.56404834 -2.40072955 2.88087546 0 0 Z " fill="#CB778A" transform="translate(280,195)"/>
<path d="M0 0 C2.31 0.66 4.62 1.32 7 2 C7 3.32 7 4.64 7 6 C5.35 5.67 3.7 5.34 2 5 C2 4.34 2 3.68 2 3 C1.01 3 0.02 3 -1 3 C-0.67 2.01 -0.34 1.02 0 0 Z " fill="#69408F" transform="translate(200,192)"/>
<path d="M0 0 C1.99897128 0.33944795 3.99875639 0.67421616 6 1 C6 1.33 6 1.66 6 2 C0.72 2 -4.56 2 -10 2 C-10 1.34 -10 0.68 -10 0 C-6.25553856 -0.96286151 -3.73773154 -0.91164184 0 0 Z " fill="#E09C70" transform="translate(340,182)"/>
<path d="M0 0 C3.32943825 0.55490638 6.11610028 1.20999328 9 3 C9.99 4.485 9.99 4.485 11 6 C5.64951939 5.62671065 3.49087093 4.0042343 0 0 Z " fill="#696B86" transform="translate(131,322)"/>
<path d="M0 0 C1.875 0.3125 1.875 0.3125 4 1 C6 4 6 4 7 6 C6.67 6.66 6.34 7.32 6 8 C7.32 8.33 8.64 8.66 10 9 C7.625 9.125 7.625 9.125 5 9 C2.6120592 6.6120592 2.64618276 5.23091381 2 2 C1.34 1.34 0.68 0.68 0 0 Z " fill="#B48EB5" transform="translate(306,292)"/>
<path d="M0 0 C0.66 0.99 1.32 1.98 2 3 C1.34 3 0.68 3 0 3 C-0.4021875 4.2065625 -0.4021875 4.2065625 -0.8125 5.4375 C-1.4003125 6.7059375 -1.4003125 6.7059375 -2 8 C-2.99 8.33 -3.98 8.66 -5 9 C-4.42647107 5.12867972 -2.51295648 2.91827204 0 0 Z " fill="#D9A38D" transform="translate(309,188)"/>
<path d="M0 0 C0.66 0.33 1.32 0.66 2 1 C2 1.66 2 2.32 2 3 C-3.41176471 7 -3.41176471 7 -6 7 C-4.60667426 3.63279613 -3.0210714 2.0140476 0 0 Z " fill="#435297" transform="translate(143,184)"/>
<path d="M0 0 C3.0916909 2.52956528 3.90931332 5.22454612 5 9 C3.68 8.67 2.36 8.34 1 8 C0.67 5.36 0.34 2.72 0 0 Z " fill="#B08FB4" transform="translate(243,211)"/>
<path d="M0 0 C2.6875 -0.3125 2.6875 -0.3125 5 0 C4.375 1.9375 4.375 1.9375 3 4 C-0.125 4.75 -0.125 4.75 -3 5 C-1.8125 2.5 -1.8125 2.5 0 0 Z " fill="#DD8974" transform="translate(305,184)"/>
<path d="M0 0 C0.66 0.33 1.32 0.66 2 1 C-0.64 3.97 -3.28 6.94 -6 10 C-6.99 9.67 -7.98 9.34 -9 9 C-6.03 6.03 -3.06 3.06 0 0 Z " fill="#E8C3BA" transform="translate(286,168)"/>
<path d="M0 0 C1.4540625 0.0309375 1.4540625 0.0309375 2.9375 0.0625 C1.375 2.125 1.375 2.125 -1.0625 4.0625 C-4.8125 3.8125 -4.8125 3.8125 -8.0625 3.0625 C-7.423125 2.753125 -6.78375 2.44375 -6.125 2.125 C-2.0825 0.0425 -2.0825 0.0425 0 0 Z " fill="#E5A67E" transform="translate(304.0625,160.9375)"/>
<path d="M0 0 C1.875 0.25 1.875 0.25 4 1 C5.25 3.0625 5.25 3.0625 6 5 C5.01 5.33 4.02 5.66 3 6 C1.5 4.6875 1.5 4.6875 0 3 C0 2.01 0 1.02 0 0 Z " fill="#423974" transform="translate(238,265)"/>
<path d="M0 0 C0.66 0 1.32 0 2 0 C1.67 3.3 1.34 6.6 1 10 C0.34 10 -0.32 10 -1 10 C-1.125 2.25 -1.125 2.25 0 0 Z " fill="#3A396C" transform="translate(199,229)"/>
<path d="M0 0 C1 3 1 3 -0.25 5.625 C-2 8 -2 8 -5 9 C-5 8.01 -5 7.02 -5 6 C-4.34 6 -3.68 6 -3 6 C-2.690625 5.195625 -2.38125 4.39125 -2.0625 3.5625 C-1 1 -1 1 0 0 Z " fill="#D9B3B4" transform="translate(273,182)"/>
<path d="M0 0 C0.99 0 1.98 0 3 0 C3.33 1.32 3.66 2.64 4 4 C3.401875 4.12375 2.80375 4.2475 2.1875 4.375 C-0.26231348 4.95475985 -0.26231348 4.95475985 -3 7 C-1.125 1.125 -1.125 1.125 0 0 Z " fill="#D18081" transform="translate(276,180)"/>
<path d="M0 0 C0.66 0 1.32 0 2 0 C0.55922954 3.36179774 -1.24750021 5.59156268 -4 8 C-4.66 8 -5.32 8 -6 8 C-6 7.34 -6 6.68 -6 6 C-5.34 6 -4.68 6 -4 6 C-4 5.34 -4 4.68 -4 4 C-3.34 4 -2.68 4 -2 4 C-1.34 2.68 -0.68 1.36 0 0 Z " fill="#8C79A0" transform="translate(299,304)"/>
<path d="M0 0 C0.66 0.33 1.32 0.66 2 1 C1.125 4.875 1.125 4.875 0 6 C-1.66617115 6.04063832 -3.33388095 6.042721 -5 6 C-4.67 5.34 -4.34 4.68 -4 4 C-3.34 4 -2.68 4 -2 4 C-1.34 2.68 -0.68 1.36 0 0 Z " fill="#7A7E96" transform="translate(189,295)"/>
<path d="M0 0 C0.99 0.33 1.98 0.66 3 1 C3.66 0.67 4.32 0.34 5 0 C5.33 1.98 5.66 3.96 6 6 C3 6 3 6 1.3125 4.6875 C0 3 0 3 0 0 Z " fill="#4C3F7A" transform="translate(217,237)"/>
<path d="M0 0 C0.66 0.99 1.32 1.98 2 3 C1.34 3 0.68 3 0 3 C-0.33 5.31 -0.66 7.62 -1 10 C-1.99 10.33 -2.98 10.66 -4 11 C-3.52269162 9.5410574 -3.04308958 8.08286504 -2.5625 6.625 C-2.29566406 5.81289062 -2.02882813 5.00078125 -1.75390625 4.1640625 C-1 2 -1 2 0 0 Z " fill="#CEA0AF" transform="translate(297,209)"/>
<path d="M0 0 C-0.66 0 -1.32 0 -2 0 C-2.28875 0.639375 -2.5775 1.27875 -2.875 1.9375 C-4 4 -4 4 -6 5 C-6 4.34 -6 3.68 -6 3 C-6.66 2.67 -7.32 2.34 -8 2 C-7.34 2 -6.68 2 -6 2 C-6 1.34 -6 0.68 -6 0 C-3.50907189 -1.24546405 -2.58919267 -0.7767578 0 0 Z " fill="#663069" transform="translate(339,187)"/>
<path d="M0 0 C0.66 0.33 1.32 0.66 2 1 C1.67 2.32 1.34 3.64 1 5 C-0.98 5.33 -2.96 5.66 -5 6 C-2.25 1.125 -2.25 1.125 0 0 Z " fill="#364381" transform="translate(141,177)"/>
<path d="M0 0 C-0.99 0.495 -0.99 0.495 -2 1 C-2 1.66 -2 2.32 -2 3 C-3.32 3 -4.64 3 -6 3 C-6 3.66 -6 4.32 -6 5 C-6.66 5 -7.32 5 -8 5 C-8 4.01 -8 3.02 -8 2 C-4.77208445 -0.1519437 -3.71599191 -0.20086443 0 0 Z " fill="#82719F" transform="translate(264,311)"/>
<path d="M0 0 C3.36591866 1.44253657 5.51047079 3.33264727 8 6 C7.01 6.33 6.02 6.66 5 7 C1.98672434 5.49336217 1.38943382 2.96833589 0 0 Z " fill="#8990A5" transform="translate(202,295)"/>
<path d="M0 0 C1.70840281 1.63412443 2.93453047 2.86906094 4 5 C2.625 6.5 2.625 6.5 1 8 C0.34 8 -0.32 8 -1 8 C-0.67 5.36 -0.34 2.72 0 0 Z " fill="#7D87AD" transform="translate(129,192)"/>
<path d="M0 0 C1.65 0.33 3.3 0.66 5 1 C5.33 2.32 5.66 3.64 6 5 C5.01 5 4.02 5 3 5 C3 4.34 3 3.68 3 3 C1.68 3 0.36 3 -1 3 C-0.67 2.01 -0.34 1.02 0 0 Z " fill="#A7659B" transform="translate(221,181)"/>
<path d="M0 0 C3.34373475 0.55728913 6.03312999 1.35173889 9 3 C9 3.33 9 3.66 9 4 C7.02 4 5.04 4 3 4 C2.67 3.01 2.34 2.02 2 1 C1.34 0.67 0.68 0.34 0 0 Z " fill="#BB9BC0" transform="translate(196,160)"/>
<path d="M0 0 C0 0.66 0 1.32 0 2 C-2.64738916 3.4606285 -3.89448334 4 -7 4 C-7 3.01 -7 2.02 -7 1 C-4.50935112 0.31292445 -2.62113708 0 0 0 Z " fill="#65358D" transform="translate(351,320)"/>
<path d="M0 0 C0 0.99 0 1.98 0 3 C-1 4 -1 4 -4.0625 4.0625 C-5.031875 4.041875 -6.00125 4.02125 -7 4 C-7.33 3.01 -7.66 2.02 -8 1 C-7.01 1.33 -6.02 1.66 -5 2 C-2.3430809 1.12085312 -2.3430809 1.12085312 0 0 Z " fill="#474B6E" transform="translate(160,319)"/>
<path d="M0 0 C0.66 0.66 1.32 1.32 2 2 C1.67 2.99 1.34 3.98 1 5 C-1.97 4.505 -1.97 4.505 -5 4 C-5 3.34 -5 2.68 -5 2 C-3.35 1.34 -1.7 0.68 0 0 Z " fill="#263062" transform="translate(222,315)"/>
<path d="M0 0 C1.5625 1.6875 1.5625 1.6875 3 4 C2.6875 6.75 2.6875 6.75 2 9 C0 7 0 7 -0.125 3.375 C-0.08375 2.26125 -0.0425 1.1475 0 0 Z " fill="#BDA0B9" transform="translate(315,291)"/>
<path d="M0 0 C0.99 0.66 1.98 1.32 3 2 C2.01 3.485 2.01 3.485 1 5 C0.01 4.67 -0.98 4.34 -2 4 C-2.99 4 -3.98 4 -5 4 C-3.35 2.68 -1.7 1.36 0 0 Z " fill="#AC81AF" transform="translate(298,294)"/>
<path d="M0 0 C1.875 0.25 1.875 0.25 4 1 C5.25 3.0625 5.25 3.0625 6 5 C5.01 5.495 5.01 5.495 4 6 C2.62437146 4.71034824 1.29233607 3.37310707 0 2 C0 1.34 0 0.68 0 0 Z " fill="#9273A9" transform="translate(274,253)"/>
<path d="M0 0 C0.66 0 1.32 0 2 0 C2.33 2.31 2.66 4.62 3 7 C1.35 6.67 -0.3 6.34 -2 6 C-2 5.34 -2 4.68 -2 4 C-1.34 4 -0.68 4 0 4 C0 2.68 0 1.36 0 0 Z " fill="#3D376F" transform="translate(211,236)"/>
<path d="M0 0 C1.65 0 3.3 0 5 0 C5.33 0.66 5.66 1.32 6 2 C5.01 2.99 4.02 3.98 3 5 C1.5 3.625 1.5 3.625 0 2 C0 1.34 0 0.68 0 0 Z " fill="#6D5A95" transform="translate(221,224)"/>
<path d="M0 0 C0.99 0.33 1.98 0.66 3 1 C1.92598892 3.91517292 1.22189824 5.77810176 -1 8 C-1.66 6.35 -2.32 4.7 -3 3 C-2.34 3 -1.68 3 -1 3 C-0.67 2.01 -0.34 1.02 0 0 Z " fill="#D6978C" transform="translate(309,201)"/>
<path d="M0 0 C0.0825 0.61875 0.165 1.2375 0.25 1.875 C0.81258459 4.18437567 0.81258459 4.18437567 3.0625 5.25 C3.701875 5.4975 4.34125 5.745 5 6 C3.02 6.33 1.04 6.66 -1 7 C-1 4.37886292 -0.68707555 2.49064888 0 0 Z " fill="#914866" transform="translate(362,193)"/>
<path d="M0 0 C0 3.25811062 -0.5522078 5.10441559 -2 8 C-2.99 8.33 -3.98 8.66 -5 9 C-3.90931332 5.22454612 -3.0916909 2.52956528 0 0 Z " fill="#8B96BA" transform="translate(137,179)"/>
<path d="M0 0 C-3.50538557 1.96301592 -7.13351728 2.95902388 -11 4 C-10.67 3.01 -10.34 2.02 -10 1 C-6.76421296 -0.31828361 -3.44785988 -0.07836045 0 0 Z " fill="#EFAC8D" transform="translate(338,183)"/>
<path d="M0 0 C2.88437779 1.29299694 4.87219421 2.65941363 7 5 C6.67 5.66 6.34 6.32 6 7 C1.125 2.25 1.125 2.25 0 0 Z " fill="#C3A1BF" transform="translate(308,284)"/>
<path d="M0 0 C0.66 0.33 1.32 0.66 2 1 C2 2.65 2 4.3 2 6 C1.67 5.34 1.34 4.68 1 4 C0.34 5.32 -0.32 6.64 -1 8 C-1.625 5.6875 -1.625 5.6875 -2 3 C-1.34 2.01 -0.68 1.02 0 0 Z " fill="#9691BA" transform="translate(215,234)"/>
<path d="M0 0 C0.99 0.99 1.98 1.98 3 3 C2.34 4.65 1.68 6.3 1 8 C-1 6 -1 6 -1.1875 3.4375 C-1 1 -1 1 0 0 Z " fill="#77679B" transform="translate(226,229)"/>
<path d="M0 0 C0.86625 0.3403125 0.86625 0.3403125 1.75 0.6875 C0.76 0.6875 -0.23 0.6875 -1.25 0.6875 C-1.58 2.0075 -1.91 3.3275 -2.25 4.6875 C-3.57 4.0275 -4.89 3.3675 -6.25 2.6875 C-2.80384615 -0.38942308 -2.80384615 -0.38942308 0 0 Z " fill="#B58BB0" transform="translate(288.25,223.3125)"/>
<path d="M0 0 C-1 2 -1 2 -4 4 C-4.99 4 -5.98 4 -7 4 C-6.6875 2.0625 -6.6875 2.0625 -6 0 C-3 -1 -3 -1 0 0 Z " fill="#975381" transform="translate(285,218)"/>
<path d="M0 0 C2.475 0.99 2.475 0.99 5 2 C4.67 3.65 4.34 5.3 4 7 C1.49962266 4.82575883 0.56371414 3.26954202 0 0 Z " fill="#928DB3" transform="translate(195,215)"/>
<path d="M0 0 C1.32 0.66 2.64 1.32 4 2 C2.02 3.32 0.04 4.64 -2 6 C-1.125 1.125 -1.125 1.125 0 0 Z " fill="#655F84" transform="translate(168,197)"/>
<path d="M0 0 C1.0625 1.875 1.0625 1.875 2 4 C1.67 4.66 1.34 5.32 1 6 C0.01 5.67 -0.98 5.34 -2 5 C-2.33 4.01 -2.66 3.02 -3 2 C-2.01 1.34 -1.02 0.68 0 0 Z " fill="#464692" transform="translate(151,167)"/>
<path d="M0 0 C-0.66 1.32 -1.32 2.64 -2 4 C-5 4 -5 4 -7 3 C-3.375 0 -3.375 0 0 0 Z " fill="#8E8BBA" transform="translate(156,164)"/>
</svg>
